<svg id="Logo" xmlns="http://www.w3.org/2000/svg" width="100" height="100" viewBox="0 0 100 100" >
<circle cx="50" cy="50" r="50" fill="#F15F4B"/>
  <path d="M69.2826 52.0412l-.5444-3.2454 2.3242-2.3346c.1013-.0984.1743-.2222.2111-.3585.0369-.1364.0362-.2802-.0018-.4162-.0353-.1228-.1056-.2327-.2022-.3163-.0966-.0837-.2156-.1374-.3422-.1548l-3.1407-.4292-1.4447-3.036c-.047-.126-.1313-.2346-.2416-.3114-.1105-.0766-.2416-.1178-.3761-.1179-.1362-.0082-.2712.0297-.3832.1074-.1122.0779-.1947.1913-.2344.3219l-1.3715 2.9732-3.2454.492c-.1293.0189-.25.0757-.3469.1633-.097.0877-.1657.2021-.1975.3288-.0371.1352-.0383.2778-.0034.4137.0349.1359.1047.2603.2023.361l2.3346 2.2613-.7642 3.2977c-.0268.1323-.0154.2694.0328.3955.0482.126.1312.2357.2394.3164.1091.0796.2376.1284.3721.1413.1344.0128.2698-.0106.3921-.068l2.8057-1.5599 2.8895 1.5599c.1039.0509.2197.0727.335.0628.1487-.01.2926-.0567.4188-.1361.112-.0775.1987-.1865.2489-.3132.0504-.1267.0621-.2654.0337-.3987zM55.2361 45.2154l-3.1407-.4292-1.4447-3.036c-.0482-.1251-.1328-.233-.2429-.3095-.1102-.0765-.2407-.1183-.3748-.1198-.1362-.0082-.2713.0297-.3833.1074-.112.0779-.1946.1913-.2344.3219l-1.3714 2.9732-3.1931.492c-.1296.0209-.2507.0781-.349.1653-.0982.0871-.1696.2005-.2059.3268-.0347.1362-.0337.2791.0031.4149.0366.1356.1077.2596.2063.3598l2.3556 2.2404-.7538 3.3186c-.0308.1323-.0214.2708.0271.3977.0485.1268.1339.2362.2451.3142.1076.0787.2343.127.3669.1399.1326.0129.2662-.0102.3869-.0666l2.8161-1.5599 2.879 1.5599c.1078.0504.2269.0719.3455.0628.1484-.0116.2919-.0583.4188-.1361.1082-.0807.1912-.1904.2394-.3164.0481-.1261.0596-.2632.0328-.3955l-.5549-3.2454 2.3346-2.3346c.0987-.1001.1698-.2241.2064-.3598.0368-.1358.0377-.2787.003-.4149-.0425-.1321-.1246-.2481-.235-.3324-.1104-.0841-.244-.1326-.3827-.1387zM39.8361 45.2154l-3.1407-.4292-1.4447-3.036c-.0482-.1251-.1328-.233-.2429-.3095-.1101-.0765-.2407-.1183-.3748-.1198-.1362-.0082-.2712.0297-.3833.1074-.112.0779-.1946.1913-.2344.3219l-1.3714 2.9732-3.2349.492c-.1302.0196-.2519.0764-.3504.1639-.0984.0873-.1695.2013-.2045.3282-.0347.1362-.0337.2791.003.4149.0367.1356.1078.2596.2064.3598l2.3346 2.2613-.7538 3.3187c-.0308.1322-.0214.2707.0271.3976s.1339.2363.2451.3143c.1076.0786.2343.127.3669.1398.1326.0129.2663-.0101.3869-.0665l2.8161-1.5599 2.879 1.5599c.1078.0507.2269.0724.3455.0628.1451-.0118.2853-.0584.4083-.1361.1111-.0785.1969-.1876.2471-.314.0502-.1264.0626-.2646.0356-.3979l-.5549-3.2454 2.3346-2.3346c.0987-.1002.1698-.2242.2065-.3598.0366-.1358.0376-.2787.0029-.4149-.0361-.1263-.1075-.2397-.2058-.3268-.0982-.0872-.2194-.1444-.3491-.1653z" fill="#fff"/>
  <path d="M71.629 63.0128c-.0534-.1165-.065-.2479-.0326-.372.0324-.124.1069-.233.2106-.3085 5.5067-4.0201 8.5532-9.3278 8.5532-14.9288 0-11.851-13.6097-21.5034-30.3602-21.5034s-30.3602 9.6524-30.3602 21.5034c0 11.8509 13.6097 21.4302 30.3602 21.4302 3.0014.018 5.9957-.2909 8.9301-.9214.171-.0171.3436.0081.5025.0733 4.6945 3.0364 9.809 5.3679 15.1801 6.9201.3023.1078.6296.1236.9409.0453.3111-.0783.5922-.2471.8075-.4851.2714-.2762.4302-.6436.4457-1.0306.0155-.3871-.1136-.766-.362-1.0632-1.9812-2.9115-3.5984-6.0546-4.8158-9.3593zm-10.9506 2.8686l-.0942-.0629c-.4787-.2354-1.0054-.3573-1.5389-.3559-.1949-.0207-.3915-.0207-.5863 0-2.7802.5937-5.6162.8849-8.459.8689-15.3895 0-27.9-8.5112-27.9-18.9803 0-10.469 12.5105-19.0014 27.9-19.0014 15.3895 0 27.9 8.5533 27.9 19.0537 0 4.8052-2.6801 9.4221-7.5168 12.9398-.5401.387-.936.9427-1.1256 1.5796-.1895.6368-.1618 1.3186.0787 1.938 1.0494 2.8054 2.3567 5.5075 3.905 8.0716-4.4144-1.5078-8.6321-3.5393-12.5629-6.0511z" fill="#fff"/>
</svg>
