<svg width="2056" height="1456" viewBox="0 0 2056 1456" fill="none" xmlns="http://www.w3.org/2000/svg">
<g clip-path="url(#clip0)">
<rect width="2056" height="1456" fill="#F9F9F9"/>
<g clip-path="url(#clip1)">
<path d="M1390.51 -87.2358C1384.92 -47.4222 1364.9 -11.0512 1334.24 14.9574C1303.58 40.966 1264.43 54.7974 1224.23 53.8201C1184.04 52.8319 1145.61 37.1034 1116.26 9.62689C1086.91 -17.8496 1068.69 -55.1565 1065.05 -95.1961L950.776 -97.9941C956.462 46.7276 1073.76 164.007 1220.6 167.583C1367.44 171.16 1490.32 59.8502 1503.07 -84.4826L1390.51 -87.2358Z" fill="white" fill-opacity="0.61"/>
<path d="M2462.86 1380.2C2312.16 1364.11 2194.26 1237.12 2193.14 1081.94C2192.02 926.759 2308.09 798.108 2458.55 779.853L2457.05 569.025C2190.6 587.968 1981.26 811.036 1983.2 1081.87C1985.15 1352.7 2197.67 1572.65 2464.35 1587.84L2462.86 1380.2Z" fill="white" fill-opacity="0.61"/>
<path d="M-467.867 1608.88C-407.564 1469.85 -251.18 1395.2 -102.756 1440.42C45.6672 1485.63 133.877 1634.79 106.434 1783.85L308.113 1845.28C369.538 1585.38 219.065 1319.04 -40.029 1240.06C-299.123 1161.09 -572.537 1298.34 -666.508 1548.3L-467.867 1608.88Z" fill="white" fill-opacity="0.61"/>
<path d="M533.188 119.747C510.548 119.747 488.416 126.46 469.592 139.038C450.767 151.616 436.095 169.493 427.431 190.409C418.767 211.325 416.5 234.341 420.917 256.545C425.334 278.749 436.236 299.145 452.245 315.154C468.254 331.162 488.651 342.064 510.856 346.481C533.061 350.898 556.078 348.631 576.995 339.967C597.911 331.303 615.789 316.632 628.368 297.808C640.946 278.984 647.659 256.853 647.659 234.214C647.659 203.855 635.599 174.74 614.132 153.274C592.664 131.807 563.548 119.747 533.188 119.747ZM532.829 302.295C519.429 302.295 506.329 298.322 495.187 290.877C484.044 283.432 475.36 272.851 470.232 260.471C465.104 248.091 463.762 234.468 466.376 221.325C468.991 208.182 475.444 196.11 484.919 186.635C494.395 177.16 506.468 170.707 519.611 168.092C532.754 165.478 546.377 166.82 558.758 171.948C571.139 177.076 581.72 185.76 589.165 196.902C596.61 208.044 600.584 221.143 600.584 234.543C600.584 243.44 598.832 252.251 595.427 260.471C592.022 268.691 587.031 276.16 580.739 282.451C574.448 288.742 566.978 293.733 558.758 297.138C550.538 300.543 541.727 302.295 532.829 302.295Z" fill="white" fill-opacity="0.61"/>
<path d="M1782.64 921.762C1760 921.762 1737.87 928.475 1719.05 941.053C1700.22 953.631 1685.55 971.508 1676.89 992.424C1668.22 1013.34 1665.96 1036.36 1670.37 1058.56C1674.79 1080.76 1685.69 1101.16 1701.7 1117.17C1717.71 1133.18 1738.11 1144.08 1760.31 1148.5C1782.52 1152.91 1805.53 1150.65 1826.45 1141.98C1847.37 1133.32 1865.25 1118.65 1877.82 1099.82C1890.4 1081 1897.12 1058.87 1897.12 1036.23C1897.12 1005.87 1885.05 976.755 1863.59 955.288C1842.12 933.822 1813 921.762 1782.64 921.762ZM1782.28 1104.31C1768.88 1104.31 1755.78 1100.34 1744.64 1092.89C1733.5 1085.45 1724.82 1074.87 1719.69 1062.49C1714.56 1050.11 1713.22 1036.48 1715.83 1023.34C1718.45 1010.2 1724.9 998.125 1734.37 988.649C1743.85 979.174 1755.92 972.721 1769.07 970.107C1782.21 967.493 1795.83 968.835 1808.21 973.963C1820.59 979.091 1831.18 987.775 1838.62 998.916C1846.07 1010.06 1850.04 1023.16 1850.04 1036.56C1850.04 1054.53 1842.9 1071.76 1830.19 1084.47C1817.49 1097.17 1800.25 1104.31 1782.28 1104.31Z" fill="white" fill-opacity="0.61"/>
<path d="M244.916 869.362L294.864 767.838L183.176 712.879L133.213 814.418L130.37 820.223L24.473 768.137L-24.772 868.21L81.125 920.311L28.3187 1027.64L132.749 1079.02L184.852 973.145L289.298 1024.51L342.104 917.183L244.916 869.362Z" fill="white" fill-opacity="0.61"/>
<path d="M999.303 951.718L1047.9 912.335L1004.58 858.872L955.983 898.255L953.2 900.514L912.125 849.82L864.227 888.649L905.287 939.328L853.917 980.97L894.423 1030.96L945.105 989.888L985.611 1039.88L1037 998.237L999.303 951.718Z" fill="white" fill-opacity="0.61"/>
<path d="M1271.5 532.994L1352.59 534.011L1353.7 444.802L1272.6 443.8L1267.97 443.74L1269.02 359.169L1189.09 358.182L1188.04 442.752L1102.31 441.69L1101.28 525.108L1185.84 526.156L1184.81 609.559L1270.55 610.622L1271.5 532.994Z" fill="white" fill-opacity="0.61"/>
<path d="M301.768 1220.28C322.429 1220.28 339.177 1203.53 339.177 1182.87C339.177 1162.21 322.429 1145.47 301.768 1145.47C281.108 1145.47 264.359 1162.21 264.359 1182.87C264.359 1203.53 281.108 1220.28 301.768 1220.28Z" fill="white" fill-opacity="0.61"/>
<path d="M1792.37 146.681C1813.03 146.681 1829.78 129.933 1829.78 109.273C1829.78 88.6136 1813.03 71.8657 1792.37 71.8657C1771.71 71.8657 1754.96 88.6136 1754.96 109.273C1754.96 129.933 1771.71 146.681 1792.37 146.681Z" fill="white" fill-opacity="0.61"/>
<path d="M1983.9 600.058C2045.88 600.058 2096.13 549.815 2096.13 487.836C2096.13 425.857 2045.88 375.614 1983.9 375.614C1921.92 375.614 1871.68 425.857 1871.68 487.836C1871.68 549.815 1921.92 600.058 1983.9 600.058Z" fill="white" fill-opacity="0.61"/>
<path d="M-87.5742 -338L-542.062 -175.996L-629 298.584L-261.451 611.161L193.037 449.157L279.975 -25.3938L-87.5742 -338ZM69.0043 343.174L-232.81 450.758L-476.896 243.191L-419.166 -71.9735L-117.352 -179.512L126.734 28.009L69.0043 343.174Z" fill="white" fill-opacity="0.61"/>
<path d="M1379 968.147L879.594 1146.21L783.977 1667.76L1187.92 2011.28L1687.39 1833.22L1782.93 1311.65L1379 968.147ZM1551.08 1716.76L1219.4 1834.97L951.135 1606.87L1014.6 1260.51L1346.28 1142.3L1614.53 1370.43L1551.08 1716.76Z" fill="white" fill-opacity="0.61"/>
<path d="M710.506 550.68H629.808L589.406 620.587L629.808 690.494H710.506L750.908 620.587L710.506 550.68ZM649.156 657.112L627.982 620.438L649.156 583.778H691.502L712.661 620.438L691.502 657.112H649.156Z" fill="white" fill-opacity="0.61"/>
<path d="M1612.81 540.206H1532L1491.6 610.113L1532 680.02H1612.81L1653.21 610.113L1612.81 540.206ZM1551.46 646.638L1530.28 609.963L1551.46 573.304H1593.8L1614.96 609.963L1593.8 646.638H1551.46Z" fill="white" fill-opacity="0.61"/>
<path d="M658.559 1217.29H588.066L552.827 1278.34L588.066 1339.39H658.559L693.813 1278.34L658.559 1217.29ZM604.96 1310.22L586.48 1278.2L604.96 1246.18H641.935L660.415 1278.2L641.935 1310.22H604.96Z" fill="white" fill-opacity="0.61"/>
</g>
</g>
<defs>
<clipPath id="clip0">
<rect width="2056" height="1456" fill="white"/>
</clipPath>
<clipPath id="clip1">
<rect width="2873" height="1616" fill="white" transform="translate(-409 -80)"/>
</clipPath>
</defs>
</svg>
