<?xml version="1.0" encoding="utf-8"?>
<!-- Generator: Adobe Illustrator 16.0.0, SVG Export Plug-In . SVG Version: 6.00 Build 0)  -->
<!DOCTYPE svg PUBLIC "-//W3C//DTD SVG 1.1//EN" "http://www.w3.org/Graphics/SVG/1.1/DTD/svg11.dtd">
<svg version="1.1" id="Layer_1" xmlns="http://www.w3.org/2000/svg" xmlns:xlink="http://www.w3.org/1999/xlink" x="0px" y="0px"
	 width="169.034px" height="51.349px" viewBox="93.744 94.177 169.034 51.349"
	 enable-background="new 93.744 94.177 169.034 51.349" xml:space="preserve">
<g id="SvgjsG1343" transform="matrix(27.84115706737437,0,0,27.84115706737437,-19.625230690148456,-20.946051478776706)">
	<title  xmlns="http://www.w3.org/2000/svg">abstract</title>
	<path fill="#6420EA" d="M5.78,4.997c0.005,0.06-0.012,0.076-0.062,0.068C5.708,5.082,5.696,5.097,5.682,5.112
		c-0.021,0.01-0.047,0.001-0.058-0.02c-0.005-0.01-0.006-0.02-0.003-0.031C5.628,5.034,5.649,5.025,5.69,5.032
		C5.692,5.025,5.694,5.017,5.696,5.01c0.003-0.007,0.007-0.015,0.011-0.022L5.706,4.984C5.689,4.968,5.677,4.95,5.689,4.926
		c0.011-0.02,0.034-0.03,0.056-0.024C5.779,4.906,5.813,4.91,5.847,4.914C5.854,4.915,5.86,4.916,5.866,4.919
		c0.023,0.007,0.036,0.031,0.03,0.054C5.89,4.994,5.868,5.007,5.847,5.004C5.835,5.003,5.824,5,5.813,4.999
		C5.802,4.998,5.792,4.997,5.78,4.997z"/>
	<path fill="#6420EA" d="M5.308,4.936c-0.037-0.001-0.059-0.024-0.05-0.05c0.015-0.045,0.035-0.087,0.053-0.131
		c0.002-0.004,0.006-0.008,0.01-0.01c0.011-0.004,0.016-0.017,0.012-0.027c-0.005-0.022,0.008-0.044,0.029-0.05
		c0.02-0.006,0.042,0.003,0.052,0.021c0.011,0.02,0.004,0.046-0.016,0.058C5.388,4.752,5.383,4.764,5.387,4.775
		c0.001,0.006,0.001,0.013-0.002,0.019C5.371,4.831,5.357,4.869,5.34,4.904C5.333,4.919,5.315,4.929,5.308,4.936z"/>
	<path fill="#6420EA" d="M5.676,4.721c-0.021,0.001-0.04-0.011-0.048-0.03C5.624,4.683,5.616,4.677,5.607,4.674
		c-0.023-0.003-0.04-0.022-0.04-0.045c0-0.021,0.016-0.039,0.037-0.042c0.023-0.004,0.039,0.007,0.051,0.032
		c0.004,0.007,0.012,0.012,0.02,0.013c0.03,0,0.06-0.003,0.09-0.005c0.024-0.004,0.046,0.012,0.05,0.036c0,0,0,0,0,0
		C5.819,4.686,5.803,4.708,5.78,4.712c-0.002,0-0.003,0-0.005,0.001C5.742,4.717,5.708,4.719,5.676,4.721z"/>
	<path fill="#6420EA" d="M5.503,5.497C5.487,5.48,5.471,5.466,5.458,5.449C5.441,5.43,5.442,5.401,5.46,5.383
		c0.018-0.016,0.043-0.012,0.065,0.009c0.018,0.017,0.037,0.032,0.057,0.046c0.023,0.01,0.034,0.037,0.024,0.06
		c-0.004,0.008-0.01,0.016-0.017,0.02C5.583,5.523,5.58,5.529,5.579,5.536c-0.001,0.019-0.015,0.036-0.034,0.04
		C5.527,5.581,5.509,5.574,5.499,5.56C5.486,5.544,5.486,5.521,5.499,5.506L5.503,5.497z"/>
	<path fill="#6420EA" d="M4.832,4.174c0.022,0.002,0.04,0.018,0.043,0.04C4.88,4.239,4.883,4.265,4.89,4.29
		c0.003,0.01,0.009,0.02,0.017,0.027C4.925,4.328,4.933,4.351,4.925,4.37C4.919,4.389,4.901,4.401,4.881,4.399
		c-0.021,0-0.039-0.016-0.042-0.037C4.838,4.355,4.835,4.35,4.831,4.345C4.785,4.309,4.789,4.256,4.789,4.207
		C4.789,4.185,4.81,4.175,4.832,4.174z"/>
	<path fill="#6420EA" d="M5.4,5.721C5.39,5.732,5.382,5.75,5.37,5.754C5.354,5.757,5.337,5.755,5.323,5.747
		c-0.012-0.009-0.021-0.02-0.027-0.034C5.28,5.684,5.265,5.654,5.252,5.624c-0.01-0.021-0.001-0.046,0.019-0.056c0,0,0,0,0,0
		c0.021-0.011,0.047-0.002,0.058,0.019c0,0,0,0.001,0,0.001c0.006,0.01,0.01,0.02,0.016,0.03C5.358,5.64,5.371,5.661,5.383,5.683
		C5.389,5.694,5.393,5.705,5.4,5.721z"/>
	<path fill="#6420EA" d="M5.747,5.218C5.747,5.256,5.72,5.278,5.691,5.268c-0.035-0.012-0.068-0.026-0.1-0.043
		c-0.021-0.01-0.03-0.034-0.02-0.055c0-0.001,0-0.001,0.001-0.001c0.01-0.022,0.037-0.032,0.059-0.021c0,0,0.001,0.001,0.002,0.001
		c0.03,0.011,0.06,0.024,0.089,0.039C5.731,5.196,5.74,5.206,5.747,5.218z"/>
	<path fill="#6420EA" d="M4.926,5.619C4.93,5.597,4.933,5.575,4.939,5.553c0.005-0.02,0.024-0.033,0.045-0.029
		c0.021,0,0.038,0.017,0.038,0.038C5.022,5.599,5.022,5.636,5.02,5.673C5.017,5.696,4.995,5.713,4.972,5.709
		C4.957,5.707,4.944,5.697,4.938,5.682C4.933,5.662,4.929,5.641,4.926,5.619z"/>
	<path fill="#6420EA" d="M4.72,5.886C4.724,5.869,4.729,5.84,4.736,5.812c0.002-0.008,0.006-0.015,0.01-0.022
		c0.01-0.019,0.032-0.027,0.052-0.02c0.02,0.007,0.032,0.028,0.027,0.049C4.82,5.85,4.814,5.881,4.807,5.912
		C4.804,5.937,4.782,5.954,4.758,5.951c-0.001,0-0.001,0-0.002,0C4.733,5.947,4.719,5.927,4.72,5.886z"/>
	<path fill="#6420EA" d="M4.473,5.189c-0.006,0.01-0.013,0.02-0.021,0.028C4.43,5.238,4.406,5.256,4.383,5.276
		C4.37,5.288,4.349,5.291,4.333,5.281C4.316,5.273,4.307,5.254,4.313,5.236c0.003-0.014,0.011-0.027,0.021-0.037
		c0.023-0.02,0.048-0.038,0.075-0.054C4.438,5.127,4.473,5.148,4.473,5.189z"/>
	<path fill="#6420EA" d="M4.575,4.361C4.574,4.4,4.538,4.422,4.512,4.404C4.478,4.384,4.452,4.353,4.438,4.316
		C4.428,4.295,4.437,4.27,4.457,4.259C4.478,4.25,4.502,4.257,4.515,4.276c0.014,0.019,0.03,0.036,0.044,0.055
		C4.565,4.341,4.571,4.35,4.575,4.361z"/>
	<path fill="#6420EA" d="M5.439,5.11C5.408,5.142,5.381,5.146,5.361,5.124C5.344,5.106,5.345,5.078,5.363,5.062
		c0,0,0.001-0.001,0.001-0.001c0.023-0.02,0.049-0.013,0.076,0.019c0.033-0.031,0.058-0.034,0.079-0.012
		c0.016,0.019,0.014,0.047-0.004,0.063C5.491,5.15,5.465,5.143,5.439,5.11z"/>
	<path fill="#6420EA" d="M4.279,4.488c0.017,0.004,0.042,0.008,0.066,0.015c0.023,0.005,0.038,0.029,0.033,0.052
		C4.373,4.579,4.349,4.593,4.326,4.588c0,0-0.001,0-0.001,0C4.302,4.585,4.28,4.58,4.258,4.575C4.233,4.572,4.216,4.549,4.219,4.525
		c0,0,0,0,0,0C4.222,4.501,4.243,4.486,4.279,4.488z"/>
	<path fill="#6420EA" d="M5.081,4.578C5.075,4.62,5.058,4.638,5.03,4.635C5.005,4.632,4.988,4.61,4.99,4.585
		c0.004-0.03,0.026-0.041,0.065-0.036c0.01-0.018,0.022-0.034,0.035-0.05c0.005-0.006,0.02-0.005,0.03-0.003
		c0.023,0.006,0.037,0.029,0.032,0.052c0,0,0,0,0,0.001C5.145,4.576,5.125,4.584,5.081,4.578z"/>
	<path fill="#6420EA" d="M5.269,4.589c-0.036-0.024-0.045-0.05-0.027-0.074c0.015-0.02,0.044-0.023,0.063-0.008
		c0.001,0,0.001,0.001,0.002,0.001c0.018,0.018,0.019,0.047,0.001,0.066C5.306,4.577,5.303,4.579,5.3,4.58
		C5.312,4.596,5.322,4.612,5.33,4.63c0.001,0.012-0.002,0.024-0.01,0.033C5.305,4.68,5.279,4.683,5.261,4.668
		C5.26,4.667,5.26,4.667,5.259,4.666C5.236,4.645,5.239,4.62,5.269,4.589z"/>
	<path fill="#6420EA" d="M5.241,4.393C5.284,4.399,5.301,4.412,5.3,4.441c0,0.022-0.017,0.04-0.039,0.042
		C5.233,4.486,5.218,4.471,5.21,4.434c-0.048-0.01-0.062-0.021-0.061-0.05C5.15,4.363,5.166,4.346,5.187,4.343
		C5.214,4.34,5.229,4.353,5.241,4.393z"/>
	<path fill="#6420EA" d="M4.589,5.545c0.012-0.029,0.025-0.057,0.04-0.085C4.64,5.442,4.663,5.436,4.681,5.447
		c0.02,0.009,0.03,0.033,0.022,0.054C4.696,5.523,4.688,5.545,4.681,5.567c-0.006,0.021-0.028,0.034-0.049,0.03
		c-0.024-0.005-0.039-0.027-0.036-0.05L4.589,5.545z"/>
	<path fill="#6420EA" d="M5.218,5.023c-0.005,0.011-0.013,0.02-0.021,0.028c-0.023,0.015-0.047,0.029-0.072,0.04
		c-0.02,0.01-0.045,0.003-0.055-0.017c-0.01-0.02-0.003-0.044,0.017-0.055c0.025-0.015,0.051-0.028,0.078-0.04
		C5.191,4.968,5.217,4.988,5.218,5.023z"/>
	<path fill="#6420EA" d="M5.48,4.917C5.486,4.914,5.492,4.91,5.497,4.906c0.015-0.016,0.04-0.019,0.058-0.007
		C5.572,4.91,5.579,4.931,5.572,4.95c-0.007,0.02-0.027,0.032-0.048,0.029c-0.009,0-0.017,0.003-0.024,0.009
		C5.484,5.005,5.46,5.009,5.441,4.998c-0.018-0.01-0.026-0.031-0.02-0.051C5.427,4.926,5.446,4.915,5.48,4.917z"/>
	<path fill="#6420EA" d="M5.591,4.443c-0.033,0-0.058-0.033-0.042-0.058c0.019-0.027,0.042-0.05,0.069-0.069
		c0.015-0.01,0.035-0.006,0.045,0.009c0.001,0.001,0.001,0.002,0.002,0.003c0.008,0.014,0.01,0.031,0.005,0.046
		C5.652,4.397,5.631,4.419,5.608,4.437C5.603,4.442,5.594,4.442,5.591,4.443z"/>
	<path fill="#6420EA" d="M4.264,4.869c0.02,0.003,0.038,0.017,0.044,0.036c0.007,0.019-0.002,0.039-0.02,0.047
		C4.265,4.964,4.24,4.972,4.215,4.979C4.192,4.982,4.171,4.966,4.167,4.943C4.165,4.929,4.17,4.915,4.181,4.905
		C4.208,4.891,4.236,4.879,4.264,4.869z"/>
	<path fill="#6420EA" d="M4.072,5.154c0.007-0.031,0.055-0.086,0.082-0.087c0.015,0,0.029,0.006,0.039,0.016
		c0.007,0.014,0.008,0.03,0.002,0.044c-0.013,0.022-0.03,0.042-0.05,0.058c-0.013,0.008-0.03,0.01-0.044,0.004
		C4.089,5.185,4.082,5.167,4.072,5.154z"/>
	<path fill="#6420EA" d="M5.152,5.357C5.134,5.355,5.117,5.343,5.11,5.326C5.103,5.309,5.107,5.289,5.12,5.276
		c0.007-0.01,0.015-0.02,0.023-0.03c0.012-0.01,0.026-0.023,0.039-0.022c0.016,0.002,0.03,0.011,0.039,0.025
		C5.225,5.264,5.224,5.28,5.216,5.294c-0.007,0.015-0.017,0.028-0.03,0.04C5.176,5.342,5.165,5.35,5.152,5.357z"/>
	<path fill="#6420EA" d="M5.719,5.678c0,0.035-0.032,0.06-0.058,0.045C5.638,5.71,5.618,5.691,5.601,5.67
		C5.589,5.653,5.593,5.63,5.609,5.619c0.001,0,0.001-0.001,0.002-0.001c0.015-0.014,0.038-0.015,0.054-0.001
		C5.679,5.628,5.693,5.64,5.706,5.654C5.711,5.661,5.716,5.67,5.719,5.678z"/>
	<path fill="#6420EA" d="M4.296,5.38c0.023,0,0.042,0.019,0.042,0.042c0,0.009-0.003,0.018-0.008,0.025
		C4.316,5.466,4.299,5.482,4.28,5.495C4.259,5.507,4.234,5.5,4.222,5.48C4.218,5.473,4.216,5.466,4.216,5.458
		C4.226,5.419,4.257,5.389,4.296,5.38z"/>
	<path fill="#6420EA" d="M5.183,4.263C5.189,4.241,5.197,4.22,5.206,4.2c0.011-0.02,0.035-0.028,0.055-0.018
		c0.021,0.009,0.031,0.033,0.023,0.055C5.28,4.252,5.276,4.267,5.271,4.281C5.265,4.303,5.242,4.317,5.22,4.312
		C5.198,4.305,5.183,4.286,5.183,4.263z"/>
	<path fill="#6420EA" d="M4.189,4.664c0.008,0,0.015,0.001,0.023,0.003c0.02,0.003,0.035,0.021,0.035,0.041
		C4.25,4.729,4.235,4.748,4.215,4.75c-0.02,0.003-0.04,0.002-0.06-0.003C4.133,4.742,4.119,4.72,4.125,4.698
		c0-0.001,0-0.002,0.001-0.002C4.131,4.672,4.15,4.661,4.189,4.664z"/>
	<path fill="#6420EA" d="M5.303,5.941C5.294,5.954,5.284,5.966,5.271,5.975C5.255,5.984,5.234,5.979,5.223,5.963
		C5.205,5.943,5.199,5.914,5.207,5.888c0.007-0.015,0.02-0.026,0.036-0.031C5.261,5.852,5.28,5.862,5.286,5.88
		C5.293,5.9,5.298,5.92,5.303,5.941z"/>
	<path fill="#6420EA" d="M4.878,4.996C4.865,5.01,4.857,5.027,4.844,5.031C4.829,5.035,4.813,5.033,4.8,5.024
		C4.786,5.011,4.774,4.995,4.767,4.977c-0.008-0.02,0-0.043,0.019-0.052c0.018-0.011,0.04-0.007,0.053,0.01
		C4.853,4.954,4.866,4.975,4.878,4.996z"/>
	<path fill="#6420EA" d="M4.496,4.6c0.036,0,0.064,0.022,0.063,0.051C4.557,4.674,4.537,4.693,4.514,4.692c0,0,0,0,0,0
		c-0.039,0-0.065-0.019-0.065-0.048c0-0.024,0.019-0.044,0.043-0.044C4.493,4.599,4.494,4.599,4.496,4.6z"/>
	<path fill="#6420EA" d="M5.82,5.33c0.036,0.002,0.065,0.027,0.063,0.055c-0.002,0.024-0.024,0.042-0.048,0.04c0,0-0.001,0-0.001,0
		c-0.03,0-0.056-0.023-0.06-0.053c0-0.023,0.019-0.042,0.043-0.042C5.818,5.33,5.819,5.33,5.82,5.33z"/>
	<path fill="#6420EA" d="M4.996,4.952c0.005-0.031,0.032-0.053,0.063-0.053C5.082,4.9,5.101,4.92,5.1,4.944c0,0,0,0,0,0
		c-0.006,0.03-0.031,0.053-0.062,0.054C5.014,4.998,4.995,4.977,4.996,4.953C4.996,4.953,4.996,4.952,4.996,4.952z"/>
	<circle fill="#6420EA" cx="4.986" cy="5.21" r="0.044"/>
	<circle fill="#6420EA" cx="4.869" cy="5.083" r="0.044"/>
	<circle fill="#6420EA" cx="4.841" cy="4.724" r="0.044"/>
	<circle fill="#6420EA" cx="4.905" cy="4.499" r="0.044"/>
	<circle fill="#6420EA" cx="4.459" cy="5.418" r="0.044"/>
	<circle fill="#6420EA" cx="4.953" cy="4.703" r="0.044"/>
	<circle fill="#6420EA" cx="5.495" cy="4.443" r="0.044"/>
	<circle fill="#6420EA" cx="5.488" cy="4.583" r="0.044"/>
	<circle fill="#6420EA" cx="4.737" cy="4.526" r="0.044"/>
	<circle fill="#6420EA" cx="5.122" cy="5.513" r="0.044"/>
	<circle fill="#6420EA" cx="5.921" cy="4.773" r="0.044"/>
	<circle fill="#6420EA" cx="5.337" cy="5.418" r="0.044"/>
	<circle fill="#6420EA" cx="4.852" cy="5.558" r="0.044"/>
	<circle fill="#6420EA" cx="4.69" cy="4.788" r="0.044"/>
	<circle fill="#6420EA" cx="4.454" cy="4.915" r="0.044"/>
	<circle fill="#6420EA" cx="5.481" cy="4.837" r="0.044"/>
	<circle fill="#6420EA" cx="5.232" cy="5.168" r="0.044"/>
	<circle fill="#6420EA" cx="5.372" cy="4.394" r="0.044"/>
	<circle fill="#6420EA" cx="4.693" cy="5.249" r="0.044"/>
	<circle fill="#6420EA" cx="5.64" cy="4.806" r="0.044"/>
	<circle fill="#6420EA" cx="5.063" cy="5.368" r="0.044"/>
	<circle fill="#6420EA" cx="5.081" cy="4.407" r="0.044"/>
	<circle fill="#6420EA" cx="4.44" cy="5.67" r="0.044"/>
	<circle fill="#6420EA" cx="5.094" cy="5.843" r="0.044"/>
	<circle fill="#6420EA" cx="5.028" cy="4.179" r="0.044"/>
	<circle fill="#6420EA" cx="5.183" cy="4.84" r="0.044"/>
	<circle fill="#6420EA" cx="4.627" cy="5.087" r="0.044"/>
	<circle fill="#6420EA" cx="4.936" cy="4.865" r="0.044"/>
	<circle fill="#6420EA" cx="4.655" cy="4.904" r="0.044"/>
	<circle fill="#6420EA" cx="5.46" cy="4.211" r="0.044"/>
	<circle fill="#6420EA" cx="5.516" cy="4.745" r="0.044"/>
	<circle fill="#6420EA" cx="5.925" cy="5.143" r="0.044"/>
	<circle fill="#6420EA" cx="4.732" cy="4.629" r="0.044"/>
	<circle fill="#6420EA" cx="5.471" cy="5.262" r="0.044"/>
	<circle fill="#6420EA" cx="5.337" cy="5.23" r="0.044"/>
	<circle fill="#6420EA" cx="5.731" cy="4.506" r="0.044"/>
	<circle fill="#6420EA" cx="5.411" cy="5.34" r="0.044"/>
	<circle fill="#6420EA" cx="5.639" cy="5.343" r="0.044"/>
	<circle fill="#6420EA" cx="5.172" cy="4.7" r="0.044"/>
	<circle fill="#6420EA" cx="5.02" cy="4.774" r="0.044"/>
	<circle fill="#6420EA" cx="4.888" cy="5.33" r="0.044"/>
</g>
<g id="SvgjsG1344" transform="matrix(3.0506379080488877,0,0,3.0506379080488877,115.79024080167689,9.550351806009669)">
	<path fill="#0F0F0F" d="M17.619,30.411c0.634,0,1.16,0.195,1.579,0.586c0.419,0.391,0.629,0.889,0.629,1.495
		c0,0.944-0.398,1.574-1.194,1.891v0.021c0.268,0.078,0.477,0.206,0.629,0.386c0.152,0.18,0.266,0.389,0.343,0.629
		c0.077,0.239,0.127,0.623,0.148,1.151c0.028,0.69,0.127,1.152,0.296,1.384H18.39c-0.091-0.233-0.162-0.669-0.211-1.31
		c-0.056-0.676-0.18-1.118-0.37-1.326c-0.19-0.208-0.5-0.312-0.93-0.312h-1.669v2.948h-1.659v-7.543H17.619L17.619,30.411z
		 M17.038,33.824c0.352,0,0.629-0.079,0.829-0.238c0.201-0.158,0.301-0.438,0.301-0.84c0-0.38-0.099-0.65-0.296-0.808
		c-0.197-0.158-0.479-0.238-0.845-0.238h-1.817v2.123H17.038L17.038,33.824z M23.546,32.345c0.514,0,0.972,0.12,1.373,0.359
		c0.402,0.239,0.717,0.586,0.945,1.041c0.229,0.454,0.343,0.977,0.343,1.569c0,0.056-0.004,0.148-0.011,0.275h-3.941
		c0.014,0.437,0.129,0.776,0.343,1.02c0.215,0.243,0.544,0.364,0.988,0.364c0.274,0,0.526-0.069,0.755-0.206
		c0.229-0.137,0.375-0.305,0.438-0.502h1.321c-0.388,1.225-1.24,1.838-2.557,1.838c-0.5-0.007-0.963-0.116-1.389-0.328
		c-0.426-0.211-0.766-0.541-1.02-0.988c-0.254-0.447-0.38-0.967-0.38-1.558c0-0.556,0.128-1.064,0.385-1.521
		c0.257-0.458,0.599-0.799,1.025-1.025C22.593,32.457,23.053,32.345,23.546,32.345L23.546,32.345z M24.697,34.637
		c-0.07-0.409-0.201-0.704-0.391-0.888c-0.19-0.183-0.461-0.274-0.813-0.274c-0.366,0-0.655,0.104-0.866,0.312
		c-0.211,0.208-0.335,0.491-0.37,0.85H24.697z M29.705,32.345c0.74,0,1.342,0.188,1.807,0.565s0.718,0.879,0.761,1.505h-1.468
		c-0.099-0.627-0.468-0.94-1.109-0.94c-0.394,0-0.706,0.162-0.935,0.486c-0.229,0.324-0.343,0.754-0.343,1.289
		c0,0.514,0.109,0.93,0.328,1.247c0.218,0.317,0.525,0.475,0.919,0.475c0.683,0,1.081-0.37,1.194-1.109h1.447
		c-0.099,0.726-0.379,1.28-0.84,1.664c-0.461,0.384-1.058,0.576-1.791,0.576c-0.81,0-1.472-0.259-1.986-0.776
		c-0.514-0.517-0.771-1.192-0.771-2.023c0-0.901,0.253-1.62,0.761-2.155C28.184,32.612,28.86,32.345,29.705,32.345z M35.664,32.345
		c1.592,0.007,2.388,0.525,2.388,1.553v2.895c0,0.535,0.063,0.923,0.19,1.162H36.72c-0.056-0.169-0.092-0.345-0.106-0.528
		c-0.444,0.451-1.056,0.676-1.838,0.676c-0.57,0-1.023-0.144-1.357-0.433c-0.335-0.289-0.502-0.69-0.502-1.204
		c0-0.5,0.158-0.887,0.475-1.162c0.324-0.289,0.912-0.472,1.764-0.549c0.606-0.063,0.989-0.143,1.152-0.238
		c0.162-0.095,0.243-0.241,0.243-0.438c0-0.247-0.074-0.43-0.222-0.549c-0.148-0.12-0.395-0.18-0.74-0.18
		c-0.317,0-0.556,0.065-0.718,0.196c-0.162,0.13-0.257,0.34-0.285,0.629h-1.5c0.035-0.599,0.282-1.053,0.739-1.363
		C34.283,32.5,34.896,32.345,35.664,32.345L35.664,32.345z M34.417,36.401c0,0.465,0.307,0.697,0.919,0.697
		c0.803-0.007,1.208-0.419,1.215-1.236v-0.581c-0.12,0.12-0.422,0.208-0.908,0.264c-0.423,0.049-0.733,0.136-0.93,0.259
		C34.516,35.928,34.417,36.127,34.417,36.401z M40.756,30.411v7.543h-1.5v-7.543H40.756z M43.481,30.411v7.543h-1.5v-7.543H43.481z
		 M47.855,32.345c0.127,0,0.236,0.018,0.327,0.053v1.395c-0.162-0.035-0.341-0.053-0.539-0.053c-0.986,0-1.479,0.585-1.479,1.754
		v2.462h-1.5v-5.462h1.426v1.014h0.021c0.148-0.352,0.382-0.634,0.703-0.845C47.135,32.45,47.482,32.345,47.855,32.345
		L47.855,32.345z"/>
</g>

<g enable-background="new    ">

	<path fill="#231F20" d="M157.412,137.404l1.009-4.747h1.714c0.277,0,0.508,0.029,0.695,0.085c0.187,0.058,0.331,0.139,0.432,0.244
		s0.166,0.232,0.194,0.379c0.029,0.147,0.023,0.309-0.016,0.484c-0.036,0.167-0.088,0.312-0.158,0.432
		c-0.07,0.121-0.15,0.222-0.238,0.303s-0.182,0.145-0.283,0.191c-0.101,0.046-0.2,0.078-0.296,0.096l-0.007,0.014
		c0.316,0.048,0.533,0.178,0.649,0.389s0.142,0.474,0.076,0.791c-0.052,0.246-0.135,0.455-0.247,0.626
		c-0.112,0.171-0.248,0.31-0.409,0.415s-0.341,0.181-0.541,0.228c-0.2,0.046-0.412,0.069-0.636,0.069H157.412z M157.94,137.021h1.14
		c0.247,0,0.462-0.011,0.649-0.033s0.348-0.067,0.484-0.135c0.137-0.068,0.246-0.165,0.33-0.29c0.083-0.125,0.147-0.291,0.192-0.498
		c0.039-0.198,0.039-0.357,0-0.478c-0.04-0.121-0.114-0.214-0.221-0.28c-0.107-0.065-0.245-0.111-0.412-0.135
		c-0.167-0.024-0.355-0.036-0.567-0.036h-1.193L157.94,137.021z M158.421,134.754h1.134c0.232,0,0.433-0.02,0.6-0.059
		s0.308-0.098,0.422-0.175c0.114-0.077,0.204-0.171,0.27-0.284c0.066-0.112,0.114-0.24,0.145-0.386
		c0.031-0.149,0.034-0.275,0.007-0.378c-0.026-0.104-0.085-0.187-0.178-0.251c-0.092-0.063-0.219-0.11-0.382-0.138
		s-0.368-0.043-0.613-0.043h-1.035L158.421,134.754z"/>
	<path fill="#231F20" d="M163.049,137.404l1.008-4.747h3.158l-0.079,0.382h-2.709l-0.37,1.714h2.446l-0.079,0.383h-2.446
		l-0.402,1.885h2.775l-0.079,0.383H163.049z"/>
	<path fill="#231F20" d="M171.368,137.404l1.009-4.747h1.734c0.308,0,0.554,0.035,0.738,0.105c0.184,0.07,0.322,0.167,0.412,0.291
		c0.09,0.123,0.142,0.264,0.155,0.425c0.013,0.16,0,0.329-0.04,0.504c-0.057,0.263-0.157,0.481-0.3,0.653
		c-0.143,0.171-0.311,0.306-0.504,0.405c-0.193,0.099-0.402,0.168-0.626,0.208s-0.446,0.059-0.666,0.059h-1.016l-0.448,2.097
		H171.368z M173.372,134.925c0.211,0,0.402-0.013,0.574-0.039c0.171-0.027,0.323-0.076,0.455-0.149
		c0.131-0.072,0.243-0.171,0.333-0.297c0.09-0.125,0.157-0.289,0.201-0.49c0.066-0.299,0.018-0.525-0.145-0.679
		c-0.163-0.154-0.457-0.231-0.883-0.231h-1.16l-0.402,1.885H173.372z"/>
	<path fill="#231F20" d="M177.558,135.248l-0.461,2.156l-0.448-0.006l1.009-4.74h1.859c0.523,0,0.902,0.098,1.137,0.293
		c0.235,0.195,0.307,0.513,0.214,0.952c-0.062,0.299-0.173,0.536-0.333,0.712c-0.16,0.176-0.39,0.326-0.689,0.448
		c0.132,0.048,0.228,0.119,0.287,0.211c0.059,0.092,0.096,0.198,0.112,0.316c0.015,0.118,0.014,0.244-0.004,0.375
		s-0.038,0.26-0.059,0.383c-0.035,0.18-0.061,0.33-0.076,0.448c-0.015,0.118-0.023,0.215-0.023,0.29s0.007,0.133,0.02,0.175
		c0.013,0.042,0.033,0.073,0.059,0.096l-0.006,0.04l-0.495,0.006c-0.03-0.083-0.042-0.194-0.033-0.333
		c0.009-0.138,0.024-0.284,0.046-0.438c0.022-0.154,0.046-0.304,0.073-0.452c0.026-0.147,0.04-0.265,0.04-0.353
		c0-0.127-0.022-0.23-0.066-0.307c-0.043-0.077-0.102-0.135-0.174-0.174c-0.073-0.04-0.159-0.066-0.26-0.08s-0.207-0.02-0.316-0.02
		H177.558z M179.035,134.865c0.167,0,0.326-0.017,0.478-0.052c0.151-0.036,0.288-0.091,0.408-0.168
		c0.121-0.077,0.224-0.175,0.311-0.294c0.085-0.118,0.146-0.261,0.181-0.428c0.039-0.176,0.039-0.321,0-0.435
		c-0.04-0.114-0.105-0.204-0.198-0.271c-0.093-0.065-0.206-0.112-0.34-0.138c-0.134-0.026-0.276-0.04-0.425-0.04h-1.424
		l-0.389,1.826H179.035z"/>
	<path fill="#231F20" d="M182.291,137.404l1.009-4.747h3.158l-0.079,0.382h-2.709l-0.369,1.714h2.446l-0.079,0.383h-2.446
		l-0.402,1.885h2.775l-0.079,0.383H182.291z"/>
	<path fill="#231F20" d="M187.539,137.404l1.008-4.747h1.734c0.308,0,0.554,0.035,0.739,0.105s0.321,0.167,0.412,0.291
		c0.09,0.123,0.142,0.264,0.155,0.425c0.013,0.16,0,0.329-0.04,0.504c-0.057,0.263-0.157,0.481-0.3,0.653
		c-0.143,0.171-0.311,0.306-0.504,0.405c-0.193,0.099-0.402,0.168-0.626,0.208s-0.446,0.059-0.666,0.059h-1.015l-0.448,2.097
		H187.539z M189.543,134.925c0.211,0,0.402-0.013,0.574-0.039c0.171-0.027,0.323-0.076,0.455-0.149
		c0.131-0.072,0.243-0.171,0.333-0.297c0.09-0.125,0.157-0.289,0.201-0.49c0.066-0.299,0.018-0.525-0.145-0.679
		c-0.163-0.154-0.457-0.231-0.883-0.231h-1.16l-0.402,1.885H189.543z"/>
	<path fill="#231F20" d="M192.391,137.404l2.875-4.747h0.508l0.811,4.747h-0.461l-0.231-1.49h-2.162l-0.876,1.49H192.391z
		 M193.96,135.531h1.859l-0.396-2.492L193.96,135.531z"/>
	<path fill="#231F20" d="M199.366,135.248l-0.462,2.156l-0.448-0.006l1.008-4.74h1.859c0.523,0,0.902,0.098,1.137,0.293
		c0.235,0.195,0.307,0.513,0.214,0.952c-0.062,0.299-0.172,0.536-0.333,0.712c-0.16,0.176-0.39,0.326-0.689,0.448
		c0.132,0.048,0.228,0.119,0.287,0.211c0.059,0.092,0.096,0.198,0.112,0.316c0.015,0.118,0.014,0.244-0.004,0.375
		s-0.037,0.26-0.059,0.383c-0.035,0.18-0.061,0.33-0.076,0.448c-0.016,0.118-0.023,0.215-0.023,0.29s0.006,0.133,0.02,0.175
		c0.012,0.042,0.032,0.073,0.059,0.096l-0.006,0.04l-0.495,0.006c-0.031-0.083-0.042-0.194-0.033-0.333
		c0.009-0.138,0.024-0.284,0.046-0.438c0.022-0.154,0.046-0.304,0.073-0.452c0.026-0.147,0.04-0.265,0.04-0.353
		c0-0.127-0.022-0.23-0.066-0.307s-0.102-0.135-0.175-0.174c-0.073-0.04-0.159-0.066-0.261-0.08c-0.101-0.013-0.207-0.02-0.316-0.02
		H199.366z M200.842,134.865c0.167,0,0.326-0.017,0.478-0.052c0.151-0.036,0.288-0.091,0.408-0.168
		c0.121-0.077,0.225-0.175,0.31-0.294c0.085-0.118,0.146-0.261,0.181-0.428c0.04-0.176,0.04-0.321,0-0.435
		c-0.039-0.114-0.105-0.204-0.197-0.271c-0.093-0.065-0.206-0.112-0.34-0.138c-0.134-0.026-0.276-0.04-0.425-0.04h-1.424
		l-0.389,1.826H200.842z"/>
	<path fill="#231F20" d="M204.099,137.404l1.009-4.747h3.158l-0.079,0.382h-2.709l-0.369,1.714h2.445l-0.079,0.383h-2.446
		l-0.402,1.885h2.775l-0.079,0.383H204.099z"/>
	<path fill="#231F20" d="M209.366,137.404l1.008-4.747h1.622c0.131,0,0.26,0.003,0.385,0.01c0.125,0.006,0.247,0.022,0.366,0.046
		c0.119,0.024,0.232,0.061,0.34,0.109c0.107,0.048,0.208,0.112,0.3,0.191c0.132,0.114,0.231,0.254,0.296,0.419
		c0.066,0.165,0.11,0.338,0.132,0.521c0.021,0.182,0.024,0.367,0.006,0.554s-0.042,0.359-0.073,0.518
		c-0.035,0.158-0.079,0.318-0.131,0.481c-0.053,0.162-0.118,0.322-0.194,0.478c-0.077,0.156-0.168,0.306-0.274,0.449
		c-0.105,0.142-0.224,0.273-0.356,0.392c-0.136,0.123-0.277,0.222-0.422,0.297c-0.145,0.075-0.294,0.133-0.448,0.175
		s-0.309,0.07-0.465,0.086c-0.156,0.015-0.313,0.023-0.471,0.023H209.366z M209.893,137.021h1.075c0.202,0,0.396-0.012,0.58-0.036
		c0.185-0.024,0.378-0.085,0.58-0.181c0.176-0.08,0.33-0.187,0.461-0.323c0.132-0.137,0.245-0.285,0.34-0.445
		c0.094-0.16,0.171-0.328,0.23-0.504c0.059-0.176,0.106-0.345,0.142-0.507c0.035-0.172,0.061-0.346,0.076-0.524
		c0.016-0.178,0.01-0.347-0.016-0.508c-0.026-0.16-0.079-0.307-0.158-0.441c-0.079-0.134-0.191-0.245-0.336-0.333
		c-0.127-0.074-0.285-0.123-0.471-0.145c-0.187-0.022-0.379-0.033-0.577-0.033h-1.075L209.893,137.021z"/>
</g>
</svg>
