<?xml version="1.0" encoding="utf-8"?>
<!-- Generator: Adobe Illustrator 16.0.0, SVG Export Plug-In . SVG Version: 6.00 Build 0)  -->
<!DOCTYPE svg PUBLIC "-//W3C//DTD SVG 1.1//EN" "http://www.w3.org/Graphics/SVG/1.1/DTD/svg11.dtd">
<svg version="1.1" id="Layer_1" xmlns="http://www.w3.org/2000/svg" xmlns:xlink="http://www.w3.org/1999/xlink" x="0px" y="0px"
	 width="1321.009px" height="401.292px" viewBox="93.744 94.177 1321.009 401.292"
	 enable-background="new 93.744 94.177 1321.009 401.292" xml:space="preserve">
<g id="SvgjsG1343" transform="matrix(27.84115706737437,0,0,27.84115706737437,-19.625230690148456,-20.946051478776706)">
	<title  xmlns="http://www.w3.org/2000/svg">abstract</title>
	<path fill="#6420EA" d="M17.419,10.868c0.037,0.469-0.096,0.596-0.481,0.534c-0.083,0.132-0.178,0.255-0.285,0.368
		c-0.168,0.081-0.369,0.011-0.45-0.157c-0.036-0.074-0.043-0.159-0.021-0.239c0.052-0.21,0.215-0.282,0.537-0.226
		c0.01-0.06,0.025-0.119,0.043-0.177c0.026-0.058,0.055-0.115,0.089-0.169l-0.009-0.034c-0.134-0.125-0.226-0.262-0.133-0.453
		c0.085-0.158,0.267-0.236,0.439-0.186c0.266,0.029,0.53,0.061,0.795,0.094c0.051,0.007,0.1,0.02,0.147,0.038
		c0.181,0.052,0.285,0.24,0.233,0.421c-0.048,0.166-0.213,0.271-0.384,0.242c-0.089-0.007-0.176-0.026-0.265-0.036
		C17.596,10.879,17.515,10.875,17.419,10.868z"/>
	<path fill="#6420EA" d="M13.729,10.393c-0.288-0.004-0.461-0.189-0.394-0.387c0.118-0.348,0.274-0.683,0.418-1.022
		c0.018-0.034,0.045-0.063,0.079-0.081c0.085-0.034,0.127-0.129,0.094-0.215c-0.039-0.17,0.063-0.34,0.23-0.387
		c0.158-0.047,0.328,0.021,0.41,0.164c0.085,0.159,0.03,0.357-0.123,0.452c-0.083,0.036-0.125,0.13-0.095,0.216
		c0.009,0.05,0.004,0.102-0.015,0.15c-0.113,0.291-0.216,0.587-0.354,0.865C13.923,10.264,13.787,10.34,13.729,10.393z"/>
	<path fill="#6420EA" d="M16.606,8.717c-0.162,0.009-0.312-0.087-0.372-0.238c-0.036-0.064-0.096-0.112-0.166-0.133
		c-0.178-0.022-0.311-0.174-0.31-0.354c0-0.166,0.122-0.306,0.286-0.33c0.181-0.032,0.306,0.056,0.395,0.249
		c0.034,0.056,0.093,0.093,0.159,0.099c0.235-0.002,0.469-0.026,0.704-0.036c0.185-0.029,0.358,0.097,0.387,0.282
		c0,0.001,0,0.002,0,0.003c0.033,0.18-0.087,0.352-0.266,0.384c-0.012,0.002-0.024,0.004-0.037,0.004
		C17.123,8.687,16.855,8.696,16.606,8.717z"/>
	<path fill="#6420EA" d="M15.259,14.783c-0.129-0.136-0.251-0.248-0.353-0.376c-0.137-0.147-0.13-0.378,0.015-0.517
		c0.144-0.127,0.333-0.094,0.509,0.069c0.139,0.129,0.287,0.25,0.443,0.359c0.18,0.078,0.263,0.286,0.186,0.466
		c-0.028,0.066-0.076,0.121-0.136,0.159c-0.04,0.039-0.066,0.088-0.077,0.143c-0.009,0.152-0.118,0.279-0.266,0.312
		c-0.133,0.038-0.277-0.013-0.356-0.127c-0.1-0.124-0.099-0.302,0.004-0.424L15.259,14.783z"/>
	<path fill="#6420EA" d="M10.01,4.438c0.171,0.012,0.311,0.142,0.334,0.312c0.045,0.198,0.069,0.401,0.12,0.598
		c0.022,0.081,0.069,0.154,0.134,0.209c0.141,0.088,0.2,0.263,0.141,0.418c-0.046,0.147-0.19,0.24-0.343,0.223
		C10.23,6.195,10.09,6.07,10.069,5.905c-0.007-0.048-0.03-0.093-0.065-0.128C9.64,5.493,9.677,5.082,9.677,4.695
		C9.677,4.524,9.836,4.449,10.01,4.438z"/>
	<path fill="#6420EA" d="M14.454,16.529c-0.078,0.089-0.143,0.224-0.24,0.255c-0.124,0.027-0.254,0.007-0.365-0.055
		c-0.093-0.067-0.166-0.157-0.211-0.262c-0.128-0.226-0.243-0.459-0.344-0.697c-0.078-0.163-0.01-0.358,0.152-0.437
		c0.001,0,0.002-0.001,0.003-0.001c0.165-0.083,0.366-0.017,0.45,0.149c0.001,0.002,0.002,0.005,0.004,0.007
		c0.048,0.074,0.081,0.158,0.124,0.235c0.096,0.171,0.197,0.339,0.291,0.512C14.362,16.316,14.397,16.403,14.454,16.529z"/>
	<path fill="#6420EA" d="M17.166,12.596c-0.006,0.297-0.216,0.469-0.443,0.396c-0.27-0.09-0.533-0.202-0.785-0.336
		c-0.162-0.075-0.233-0.266-0.158-0.428c0.002-0.004,0.004-0.007,0.006-0.011c0.081-0.173,0.286-0.248,0.459-0.167
		c0.004,0.002,0.008,0.004,0.012,0.006c0.238,0.087,0.471,0.189,0.697,0.306C17.039,12.425,17.111,12.504,17.166,12.596z"/>
	<path fill="#6420EA" d="M10.75,15.735c0.03-0.172,0.05-0.349,0.094-0.52c0.037-0.158,0.191-0.259,0.35-0.229
		c0.163,0,0.295,0.133,0.295,0.296c0.009,0.291,0.007,0.583-0.011,0.873c-0.024,0.181-0.191,0.308-0.371,0.284
		c-0.12-0.016-0.222-0.097-0.265-0.211C10.799,16.066,10.768,15.902,10.75,15.735z"/>
	<path fill="#6420EA" d="M9.139,17.816c0.027-0.128,0.07-0.353,0.122-0.575c0.018-0.061,0.044-0.119,0.08-0.173
		c0.078-0.147,0.253-0.213,0.409-0.156c0.157,0.056,0.247,0.222,0.209,0.384c-0.042,0.244-0.089,0.487-0.141,0.729
		c-0.023,0.19-0.195,0.325-0.385,0.302c-0.004,0-0.008-0.001-0.013-0.002C9.234,18.298,9.127,18.141,9.139,17.816z"/>
	<path fill="#6420EA" d="M7.203,12.372c-0.046,0.08-0.101,0.155-0.164,0.223c-0.171,0.159-0.357,0.302-0.535,0.453
		c-0.105,0.101-0.264,0.12-0.39,0.046c-0.133-0.063-0.203-0.212-0.162-0.354c0.027-0.11,0.084-0.211,0.165-0.29
		c0.181-0.159,0.377-0.301,0.584-0.424C6.935,11.888,7.209,12.053,7.203,12.372z"/>
	<path fill="#6420EA" d="M8.006,5.898c-0.007,0.308-0.288,0.48-0.496,0.343c-0.262-0.162-0.465-0.404-0.58-0.69
		C6.856,5.386,6.922,5.192,7.081,5.106c0.163-0.074,0.355-0.018,0.453,0.132C7.647,5.383,7.769,5.521,7.877,5.67
		C7.925,5.742,7.968,5.818,8.006,5.898z"/>
	<path fill="#6420EA" d="M14.755,11.759c-0.244,0.243-0.452,0.277-0.608,0.106c-0.131-0.138-0.126-0.356,0.012-0.487
		c0.003-0.003,0.005-0.005,0.008-0.007c0.176-0.155,0.38-0.104,0.591,0.149c0.26-0.239,0.457-0.268,0.613-0.093
		c0.126,0.147,0.11,0.368-0.034,0.496C15.162,12.07,14.958,12.016,14.755,11.759z"/>
	<path fill="#6420EA" d="M5.689,6.892c0.134,0.03,0.329,0.063,0.518,0.118c0.184,0.042,0.298,0.225,0.256,0.409
		C6.421,7.603,6.238,7.717,6.054,7.675c-0.002,0-0.004-0.001-0.007-0.002C5.872,7.648,5.696,7.615,5.523,7.574
		C5.33,7.549,5.194,7.372,5.218,7.179c0,0,0-0.001,0-0.002C5.245,6.995,5.409,6.879,5.689,6.892z"/>
	<path fill="#6420EA" d="M11.956,7.598c-0.048,0.326-0.177,0.47-0.398,0.445c-0.192-0.024-0.329-0.197-0.31-0.39
		c0.035-0.237,0.201-0.321,0.504-0.283c0.081-0.138,0.174-0.269,0.277-0.392c0.042-0.044,0.159-0.04,0.233-0.024
		c0.181,0.044,0.292,0.225,0.248,0.406c0,0.002-0.001,0.003-0.001,0.005C12.459,7.582,12.302,7.647,11.956,7.598z"/>
	<path fill="#6420EA" d="M13.423,7.682c-0.281-0.188-0.352-0.394-0.209-0.582c0.121-0.153,0.343-0.18,0.496-0.059
		c0.004,0.004,0.009,0.007,0.013,0.011c0.144,0.14,0.148,0.369,0.009,0.514c-0.018,0.019-0.038,0.036-0.06,0.05
		c0.092,0.119,0.17,0.248,0.234,0.384c0.01,0.093-0.019,0.187-0.081,0.258c-0.116,0.138-0.322,0.156-0.461,0.04
		c-0.005-0.004-0.01-0.009-0.015-0.014C13.17,8.121,13.191,7.924,13.423,7.682z"/>
	<path fill="#6420EA" d="M13.205,6.151c0.343,0.046,0.474,0.151,0.466,0.376c0,0.173-0.134,0.316-0.306,0.328
		c-0.219,0.021-0.339-0.093-0.398-0.383c-0.377-0.077-0.488-0.168-0.478-0.389c0.007-0.165,0.133-0.299,0.296-0.319
		C13,5.738,13.111,5.841,13.205,6.151z"/>
	<path fill="#6420EA" d="M8.111,15.151c0.091-0.226,0.195-0.447,0.311-0.661c0.085-0.139,0.266-0.185,0.406-0.103
		c0.158,0.074,0.232,0.257,0.17,0.42c-0.053,0.175-0.109,0.349-0.166,0.522c-0.05,0.166-0.216,0.269-0.387,0.238
		c-0.184-0.035-0.309-0.207-0.285-0.393L8.111,15.151z"/>
	<path fill="#6420EA" d="M13.028,11.073c-0.042,0.082-0.099,0.156-0.167,0.218c-0.181,0.119-0.37,0.224-0.566,0.313
		c-0.156,0.081-0.349,0.021-0.43-0.135c-0.081-0.155-0.022-0.345,0.131-0.428c0.196-0.118,0.401-0.221,0.612-0.31
		C12.814,10.648,13.022,10.798,13.028,11.073z"/>
	<path fill="#6420EA" d="M15.079,10.245c0.046-0.025,0.089-0.054,0.129-0.086c0.118-0.125,0.309-0.148,0.454-0.055
		c0.136,0.085,0.191,0.256,0.13,0.405c-0.054,0.157-0.214,0.253-0.378,0.226c-0.07,0-0.136,0.024-0.19,0.069
		c-0.114,0.128-0.302,0.161-0.452,0.078c-0.14-0.077-0.207-0.242-0.157-0.395C14.659,10.318,14.811,10.229,15.079,10.245z"/>
	<path fill="#6420EA" d="M15.943,6.541c-0.259-0.003-0.451-0.261-0.325-0.453c0.148-0.209,0.329-0.391,0.537-0.542
		c0.117-0.078,0.274-0.047,0.353,0.07c0.005,0.007,0.01,0.015,0.014,0.023c0.066,0.109,0.081,0.241,0.042,0.362
		c-0.144,0.183-0.307,0.349-0.487,0.497C16.039,6.533,15.97,6.533,15.943,6.541z"/>
	<path fill="#6420EA" d="M5.576,9.873c0.16,0.022,0.294,0.132,0.346,0.284c0.054,0.146-0.016,0.308-0.159,0.369
		c-0.184,0.084-0.376,0.151-0.572,0.201c-0.18,0.026-0.348-0.098-0.374-0.278c-0.016-0.11,0.024-0.221,0.108-0.295
		C5.135,10.046,5.352,9.952,5.576,9.873z"/>
	<path fill="#6420EA" d="M4.072,12.102c0.054-0.246,0.429-0.672,0.645-0.678c0.115-0.004,0.227,0.044,0.305,0.129
		c0.059,0.107,0.065,0.234,0.017,0.345c-0.101,0.175-0.234,0.33-0.392,0.456c-0.104,0.063-0.232,0.075-0.346,0.033
		C4.202,12.341,4.146,12.201,4.072,12.102z"/>
	<path fill="#6420EA" d="M12.515,13.682c-0.147-0.012-0.275-0.106-0.33-0.243c-0.056-0.133-0.025-0.287,0.079-0.386
		c0.055-0.081,0.116-0.159,0.181-0.232c0.091-0.076,0.206-0.18,0.306-0.174c0.126,0.016,0.238,0.088,0.305,0.195
		c0.03,0.118,0.015,0.242-0.042,0.349c-0.057,0.117-0.136,0.222-0.231,0.311C12.7,13.57,12.61,13.63,12.515,13.682z"/>
	<path fill="#6420EA" d="M16.943,16.197c0.003,0.275-0.247,0.467-0.45,0.354c-0.182-0.11-0.343-0.253-0.472-0.422
		c-0.093-0.128-0.065-0.307,0.063-0.4c0.004-0.003,0.008-0.006,0.012-0.008c0.116-0.113,0.299-0.116,0.419-0.008
		c0.116,0.088,0.225,0.186,0.325,0.292C16.884,16.063,16.918,16.128,16.943,16.197z"/>
	<path fill="#6420EA" d="M5.821,13.863c0.181,0,0.328,0.146,0.329,0.327c0,0.07-0.022,0.138-0.063,0.195
		c-0.108,0.148-0.241,0.277-0.393,0.379c-0.157,0.092-0.359,0.04-0.451-0.116c-0.032-0.053-0.048-0.115-0.046-0.176
		C5.275,14.168,5.515,13.933,5.821,13.863z"/>
	<path fill="#6420EA" d="M12.751,5.136c0.049-0.169,0.11-0.333,0.184-0.492c0.082-0.154,0.27-0.216,0.428-0.143
		c0.165,0.072,0.245,0.261,0.183,0.43c-0.031,0.116-0.062,0.232-0.101,0.346c-0.049,0.173-0.224,0.277-0.399,0.239
		C12.875,5.465,12.757,5.312,12.751,5.136z"/>
	<path fill="#6420EA" d="M4.988,8.27c0.06,0.002,0.12,0.01,0.179,0.021c0.159,0.023,0.275,0.161,0.272,0.321
		c0.02,0.161-0.092,0.309-0.253,0.332C5.03,8.967,4.872,8.959,4.719,8.921C4.548,8.881,4.443,8.708,4.484,8.537
		c0.001-0.006,0.003-0.012,0.005-0.018C4.535,8.333,4.685,8.249,4.988,8.27z"/>
	<path fill="#6420EA" d="M13.691,18.248c-0.067,0.103-0.15,0.193-0.247,0.268c-0.131,0.068-0.292,0.027-0.375-0.095
		c-0.142-0.16-0.19-0.384-0.125-0.587c0.057-0.114,0.157-0.2,0.278-0.24c0.143-0.041,0.292,0.039,0.336,0.181
		C13.612,17.93,13.656,18.088,13.691,18.248z"/>
	<path fill="#6420EA" d="M10.367,10.861c-0.098,0.111-0.162,0.242-0.259,0.277c-0.117,0.034-0.243,0.015-0.346-0.052
		c-0.113-0.102-0.2-0.228-0.256-0.369c-0.066-0.155,0-0.334,0.151-0.409c0.137-0.085,0.316-0.053,0.414,0.076
		C10.178,10.537,10.278,10.696,10.367,10.861z"/>
	<path fill="#6420EA" d="M7.383,7.766C7.667,7.768,7.88,7.94,7.873,8.162c-0.007,0.186-0.164,0.331-0.35,0.323
		c-0.001,0-0.002,0-0.003,0c-0.304-0.002-0.505-0.15-0.506-0.373C7.01,7.924,7.16,7.768,7.348,7.764
		C7.359,7.764,7.371,7.765,7.383,7.766z"/>
	<path fill="#6420EA" d="M17.734,13.472c0.284,0.016,0.506,0.213,0.489,0.431c-0.018,0.189-0.186,0.328-0.375,0.311
		c-0.004,0-0.007-0.001-0.01-0.001c-0.238,0-0.439-0.177-0.469-0.414c0.001-0.183,0.151-0.33,0.333-0.329
		C17.713,13.471,17.724,13.471,17.734,13.472z"/>
	<path fill="#6420EA" d="M11.293,10.516c0.037-0.24,0.247-0.416,0.49-0.41c0.186,0.007,0.332,0.162,0.325,0.349c0,0,0,0.001,0,0.002
		c-0.043,0.237-0.244,0.413-0.485,0.425c-0.188-0.005-0.336-0.162-0.331-0.35C11.292,10.526,11.292,10.521,11.293,10.516z"/>
	<circle fill="#6420EA" cx="11.211" cy="12.536" r="0.343"/>
	<circle fill="#6420EA" cx="10.301" cy="11.546" r="0.345"/>
	<circle fill="#6420EA" cx="10.081" cy="8.741" r="0.346"/>
	<circle fill="#6420EA" cx="10.582" cy="6.976" r="0.346"/>
	<circle fill="#6420EA" cx="7.095" cy="14.161" r="0.346"/>
	<circle fill="#6420EA" cx="10.96" cy="8.577" r="0.344"/>
	<circle fill="#6420EA" cx="15.193" cy="6.541" r="0.347"/>
	<circle fill="#6420EA" cx="15.139" cy="7.638" r="0.345"/>
	<circle fill="#6420EA" cx="9.27" cy="7.187" r="0.343"/>
	<circle fill="#6420EA" cx="12.281" cy="14.901" r="0.344"/>
	<circle fill="#6420EA" cx="18.521" cy="9.125" r="0.345"/>
	<circle fill="#6420EA" cx="13.959" cy="14.158" r="0.345"/>
	<circle fill="#6420EA" cx="10.164" cy="15.259" r="0.346"/>
	<circle fill="#6420EA" cx="8.899" cy="9.242" r="0.344"/>
	<circle fill="#6420EA" cx="7.057" cy="10.228" r="0.345"/>
	<circle fill="#6420EA" cx="15.084" cy="9.622" r="0.344"/>
	<circle fill="#6420EA" cx="13.135" cy="12.207" r="0.345"/>
	<circle fill="#6420EA" cx="14.234" cy="6.158" r="0.344"/>
	<circle fill="#6420EA" cx="8.929" cy="12.837" r="0.343"/>
	<circle fill="#6420EA" cx="16.323" cy="9.378" r="0.344"/>
	<circle fill="#6420EA" cx="11.814" cy="13.771" r="0.345"/>
	<circle fill="#6420EA" cx="11.955" cy="6.264" r="0.344"/>
	<circle fill="#6420EA" cx="6.948" cy="16.134" r="0.343"/>
	<circle fill="#6420EA" cx="12.061" cy="17.483" r="0.346"/>
	<circle fill="#6420EA" cx="11.54" cy="4.479" r="0.344"/>
	<circle fill="#6420EA" cx="12.758" cy="9.647" r="0.346"/>
	<circle fill="#6420EA" cx="8.408" cy="11.572" r="0.346"/>
	<circle fill="#6420EA" cx="10.825" cy="9.841" r="0.345"/>
	<circle fill="#6420EA" cx="8.629" cy="10.145" r="0.344"/>
	<circle fill="#6420EA" cx="14.92" cy="4.726" r="0.343"/>
	<circle fill="#6420EA" cx="15.355" cy="8.905" r="0.344"/>
	<circle fill="#6420EA" cx="18.55" cy="12.011" r="0.344"/>
	<circle fill="#6420EA" cx="9.23" cy="7.999" r="0.343"/>
	<circle fill="#6420EA" cx="15.003" cy="12.946" r="0.345"/>
	<circle fill="#6420EA" cx="13.959" cy="12.695" r="0.343"/>
	<circle fill="#6420EA" cx="17.037" cy="7.036" r="0.343"/>
	<circle fill="#6420EA" cx="14.538" cy="13.551" r="0.343"/>
	<circle fill="#6420EA" cx="16.322" cy="13.578" r="0.344"/>
	<circle fill="#6420EA" cx="12.666" cy="8.551" r="0.343"/>
	<circle fill="#6420EA" cx="11.484" cy="9.127" r="0.343"/>
	<circle fill="#6420EA" cx="10.451" cy="13.47" r="0.344"/>
</g>
<g id="SvgjsG1344" transform="matrix(3.0506379080488877,0,0,3.0506379080488877,115.79024080167689,9.550351806009669)">
	<path fill="#0F0F0F" d="M186.946,48.611c4.954,0,9.069,1.527,12.343,4.582c3.274,3.055,4.913,6.949,4.913,11.683
		c0,7.376-3.11,12.302-9.33,14.779v0.165c2.092,0.605,3.729,1.61,4.913,3.013c1.184,1.404,2.078,3.041,2.683,4.912
		c0.605,1.872,0.991,4.872,1.156,9c0.22,5.394,0.991,9,2.312,10.816h-12.962c-0.716-1.816-1.266-5.229-1.651-10.238
		c-0.44-5.284-1.404-8.738-2.89-10.362c-1.486-1.624-3.908-2.435-7.265-2.435h-13.045v23.035H155.16v-58.95H186.946L186.946,48.611z
		 M182.405,75.279c2.752,0,4.912-0.619,6.481-1.858c1.569-1.239,2.353-3.426,2.353-6.564c0-2.972-0.771-5.078-2.312-6.316
		c-1.541-1.239-3.743-1.858-6.605-1.858h-14.201v16.595L182.405,75.279L182.405,75.279z M233.264,63.721
		c4.018,0,7.596,0.936,10.733,2.807s5.601,4.582,7.389,8.133c1.789,3.55,2.683,7.637,2.683,12.261c0,0.44-0.027,1.156-0.082,2.147
		h-30.796c0.11,3.413,1.004,6.068,2.684,7.968c1.678,1.899,4.252,2.848,7.719,2.848c2.147,0,4.114-0.537,5.903-1.61
		c1.789-1.073,2.931-2.38,3.426-3.922h10.32c-3.027,9.577-9.687,14.366-19.98,14.366c-3.908-0.055-7.527-0.909-10.857-2.56
		c-3.33-1.651-5.986-4.224-7.968-7.719c-1.981-3.496-2.972-7.554-2.972-12.178c0-4.348,1.004-8.312,3.014-11.889
		c2.009-3.577,4.679-6.247,8.009-8.008C225.819,64.601,229.411,63.721,233.264,63.721L233.264,63.721z M242.263,81.637
		c-0.55-3.192-1.568-5.504-3.055-6.935c-1.486-1.431-3.605-2.147-6.357-2.147c-2.862,0-5.119,0.812-6.77,2.436
		c-1.651,1.624-2.615,3.839-2.89,6.646H242.263z M281.398,63.721c5.779,0,10.486,1.473,14.118,4.417
		c3.633,2.945,5.614,6.867,5.944,11.765h-11.476c-0.771-4.899-3.66-7.348-8.67-7.348c-3.082,0-5.518,1.266-7.307,3.798
		c-1.789,2.532-2.683,5.89-2.683,10.073c0,4.018,0.853,7.266,2.56,9.742c1.706,2.477,4.1,3.715,7.183,3.715
		c5.339,0,8.449-2.889,9.329-8.669h11.311c-0.77,5.669-2.959,10.004-6.564,13.003c-3.605,3-8.27,4.5-13.994,4.5
		c-6.33,0-11.503-2.023-15.522-6.068c-4.018-4.045-6.027-9.316-6.027-15.81c0-7.045,1.981-12.659,5.944-16.843
		C269.509,65.812,274.793,63.721,281.398,63.721z M327.963,63.721c12.44,0.055,18.659,4.1,18.659,12.137v22.622
		c0,4.183,0.495,7.21,1.486,9.082h-11.889c-0.44-1.321-0.716-2.697-0.826-4.128c-3.468,3.523-8.256,5.284-14.366,5.284
		c-4.458,0-7.994-1.128-10.609-3.385c-2.614-2.257-3.922-5.394-3.922-9.412c0-3.908,1.239-6.935,3.715-9.082
		c2.532-2.257,7.128-3.688,13.788-4.293c4.734-0.495,7.733-1.114,9-1.857c1.266-0.743,1.899-1.885,1.899-3.426
		c0-1.926-0.578-3.357-1.734-4.293c-1.156-0.936-3.082-1.403-5.779-1.403c-2.477,0-4.348,0.509-5.614,1.527
		c-1.266,1.018-2.009,2.656-2.229,4.913h-11.724c0.275-4.679,2.202-8.229,5.779-10.651
		C317.175,64.931,321.964,63.721,327.963,63.721L327.963,63.721z M318.221,95.425c0,3.632,2.394,5.449,7.183,5.449
		c6.275-0.055,9.439-3.275,9.495-9.66v-4.541c-0.936,0.936-3.302,1.624-7.1,2.064c-3.303,0.385-5.724,1.06-7.266,2.023
		C318.992,91.723,318.221,93.278,318.221,95.425z M367.758,48.611v58.95h-11.724v-58.95H367.758z M389.06,48.611v58.95h-11.724
		v-58.95H389.06z M423.241,63.721c0.991,0,1.844,0.138,2.56,0.413v10.898c-1.266-0.275-2.669-0.413-4.211-0.413
		c-7.706,0-11.559,4.569-11.559,13.706v19.237h-11.724V64.877h11.146v7.926h0.165c1.156-2.752,2.986-4.954,5.491-6.605
		C417.613,64.546,420.323,63.721,423.241,63.721L423.241,63.721z"/>
</g>
<g enable-background="new    ">
	<path fill="#231F20" d="M591.315,431.995l7.883-37.094h13.395c2.164,0,3.976,0.224,5.436,0.67c1.459,0.446,2.584,1.082,3.375,1.906
		c0.79,0.825,1.296,1.812,1.52,2.963c0.223,1.151,0.18,2.413-0.129,3.786c-0.275,1.306-0.688,2.431-1.237,3.374
		c-0.55,0.946-1.168,1.735-1.854,2.37c-0.687,0.636-1.425,1.134-2.215,1.494c-0.791,0.361-1.563,0.61-2.318,0.747l-0.051,0.103
		c2.473,0.378,4.164,1.392,5.075,3.04c0.91,1.649,1.107,3.71,0.592,6.183c-0.412,1.924-1.056,3.555-1.932,4.895
		c-0.876,1.339-1.94,2.421-3.194,3.246s-2.662,1.417-4.224,1.777c-1.563,0.361-3.22,0.542-4.972,0.542H591.315z M595.437,429.006
		h8.913c1.923,0,3.614-0.085,5.075-0.257c1.459-0.172,2.722-0.523,3.787-1.056c1.064-0.532,1.923-1.289,2.576-2.267
		c0.652-0.979,1.15-2.275,1.494-3.89c0.309-1.546,0.309-2.79,0-3.735c-0.309-0.944-0.884-1.674-1.726-2.189
		c-0.842-0.515-1.915-0.867-3.22-1.056c-1.306-0.188-2.782-0.283-4.431-0.283h-9.325L595.437,429.006z M599.198,411.283h8.861
		c1.82,0,3.382-0.154,4.688-0.463c1.305-0.31,2.404-0.765,3.297-1.366c0.893-0.6,1.597-1.339,2.112-2.215
		c0.515-0.875,0.893-1.88,1.133-3.014c0.24-1.167,0.258-2.155,0.051-2.962c-0.206-0.807-0.669-1.459-1.391-1.958
		c-0.721-0.497-1.718-0.858-2.988-1.082c-1.271-0.223-2.868-0.335-4.792-0.335h-8.088L599.198,411.283z"/>
	<path fill="#231F20" d="M635.776,431.995l7.882-37.094h24.678l-0.618,2.988h-21.175l-2.885,13.395h19.114l-0.618,2.988h-19.114
		l-3.143,14.734h21.689l-0.618,2.989H635.776z"/>
	<path fill="#231F20" d="M701.618,431.995l7.882-37.094h13.549c2.404,0,4.328,0.275,5.771,0.825c1.442,0.55,2.515,1.305,3.22,2.267
		c0.704,0.961,1.108,2.07,1.21,3.323c0.103,1.254,0,2.568-0.309,3.941c-0.447,2.061-1.229,3.762-2.344,5.101
		c-1.117,1.34-2.43,2.396-3.941,3.168c-1.512,0.773-3.143,1.313-4.894,1.623c-1.752,0.31-3.486,0.464-5.204,0.464h-7.934
		l-3.503,16.384H701.618z M717.279,412.623c1.648,0,3.143-0.103,4.482-0.309c1.339-0.206,2.524-0.592,3.554-1.159
		c1.031-0.566,1.897-1.339,2.602-2.318c0.703-0.979,1.228-2.259,1.571-3.838c0.515-2.335,0.137-4.104-1.133-5.306
		c-1.271-1.203-3.572-1.804-6.904-1.804h-9.067l-3.143,14.734H717.279z"/>
	<path fill="#231F20" d="M750.406,415.147l-3.606,16.848l-3.503-0.052l7.883-37.042h14.528c4.087,0,7.05,0.765,8.888,2.292
		c1.837,1.529,2.395,4.01,1.675,7.445c-0.482,2.336-1.349,4.191-2.603,5.564c-1.254,1.374-3.048,2.542-5.384,3.503
		c1.031,0.378,1.777,0.927,2.241,1.648c0.464,0.721,0.755,1.546,0.876,2.474c0.119,0.927,0.11,1.906-0.026,2.937
		c-0.138,1.03-0.292,2.027-0.464,2.988c-0.275,1.408-0.473,2.575-0.592,3.503c-0.121,0.927-0.181,1.683-0.181,2.267
		c0,0.584,0.052,1.039,0.155,1.365c0.103,0.327,0.257,0.576,0.463,0.747l-0.051,0.309l-3.864,0.052
		c-0.241-0.653-0.327-1.521-0.257-2.602c0.068-1.082,0.188-2.223,0.36-3.426c0.171-1.202,0.36-2.377,0.567-3.529
		c0.206-1.149,0.309-2.068,0.309-2.756c0-0.996-0.172-1.794-0.515-2.395s-0.798-1.056-1.365-1.365
		c-0.567-0.31-1.246-0.515-2.035-0.619c-0.791-0.103-1.615-0.155-2.474-0.155H750.406z M761.946,412.16
		c1.305,0,2.55-0.137,3.735-0.413c1.185-0.274,2.249-0.712,3.194-1.313c0.944-0.601,1.751-1.365,2.421-2.292
		s1.141-2.043,1.417-3.349c0.31-1.373,0.31-2.506,0-3.399c-0.309-0.894-0.824-1.598-1.545-2.113
		c-0.721-0.515-1.606-0.876-2.653-1.082c-1.048-0.206-2.155-0.31-3.323-0.31h-11.128l-3.04,14.271H761.946z"/>
	<path fill="#231F20" d="M787.809,431.995l7.882-37.094h24.677l-0.618,2.988h-21.174l-2.885,13.395h19.114l-0.619,2.988h-19.114
		l-3.143,14.734h21.69l-0.619,2.989H787.809z"/>
	<path fill="#231F20" d="M829.229,431.995l7.882-37.094h13.55c2.403,0,4.328,0.275,5.77,0.825c1.443,0.55,2.515,1.305,3.22,2.267
		c0.704,0.961,1.107,2.07,1.211,3.323c0.103,1.254,0,2.568-0.309,3.941c-0.448,2.061-1.229,3.762-2.345,5.101
		c-1.116,1.34-2.431,2.396-3.941,3.168c-1.512,0.773-3.143,1.313-4.894,1.623c-1.751,0.31-3.486,0.464-5.204,0.464h-7.934
		l-3.503,16.384H829.229z M844.892,412.623c1.648,0,3.142-0.103,4.482-0.309c1.339-0.206,2.524-0.592,3.555-1.159
		c1.03-0.566,1.897-1.339,2.602-2.318c0.703-0.979,1.228-2.259,1.571-3.838c0.515-2.335,0.137-4.104-1.133-5.306
		c-1.271-1.203-3.572-1.804-6.903-1.804h-9.067l-3.143,14.734H844.892z"/>
	<path fill="#231F20" d="M867.56,431.995l22.462-37.094h3.967l6.337,37.094h-3.606l-1.803-11.644h-16.898l-6.852,11.644H867.56z
		 M879.821,417.363h14.528l-3.091-19.475L879.821,417.363z"/>
	<path fill="#231F20" d="M922.478,415.147l-3.606,16.848l-3.503-0.052l7.883-37.042h14.528c4.087,0,7.049,0.765,8.887,2.292
		c1.837,1.529,2.396,4.01,1.674,7.445c-0.481,2.336-1.349,4.191-2.602,5.564c-1.254,1.374-3.049,2.542-5.384,3.503
		c1.03,0.378,1.778,0.927,2.241,1.648c0.464,0.721,0.755,1.546,0.875,2.474c0.121,0.927,0.111,1.906-0.025,2.937
		c-0.138,1.03-0.292,2.027-0.464,2.988c-0.275,1.408-0.472,2.575-0.593,3.503c-0.12,0.927-0.18,1.683-0.18,2.267
		c0,0.584,0.051,1.039,0.154,1.365c0.103,0.327,0.258,0.576,0.464,0.747l-0.052,0.309l-3.864,0.052
		c-0.24-0.653-0.327-1.521-0.258-2.602s0.188-2.223,0.361-3.426c0.171-1.202,0.361-2.377,0.567-3.529
		c0.206-1.149,0.309-2.068,0.309-2.756c0-0.996-0.172-1.794-0.515-2.395c-0.344-0.601-0.799-1.056-1.365-1.365
		c-0.567-0.31-1.246-0.515-2.036-0.619c-0.79-0.103-1.614-0.155-2.472-0.155H922.478z M934.019,412.16
		c1.305,0,2.55-0.137,3.735-0.413c1.186-0.274,2.249-0.712,3.194-1.313c0.944-0.601,1.752-1.365,2.421-2.292
		s1.142-2.043,1.417-3.349c0.309-1.373,0.309-2.506,0-3.399c-0.31-0.894-0.825-1.598-1.545-2.113
		c-0.722-0.515-1.606-0.876-2.654-1.082c-1.048-0.206-2.156-0.31-3.323-0.31h-11.128l-3.04,14.271H934.019z"/>
	<path fill="#231F20" d="M959.881,431.995l7.883-37.094h24.678l-0.618,2.988h-21.175l-2.885,13.395h19.113l-0.618,2.988h-19.113
		l-3.143,14.734h21.689l-0.618,2.989H959.881z"/>
	<path fill="#231F20" d="M1001.456,431.995l7.883-37.094h12.674c1.03,0,2.035,0.025,3.013,0.077
		c0.979,0.051,1.933,0.172,2.859,0.361c0.927,0.189,1.812,0.472,2.653,0.85c0.841,0.378,1.623,0.876,2.345,1.494
		c1.03,0.894,1.802,1.983,2.317,3.272c0.516,1.288,0.858,2.645,1.031,4.07c0.171,1.426,0.188,2.868,0.051,4.327
		c-0.138,1.461-0.327,2.809-0.566,4.045c-0.276,1.236-0.619,2.49-1.031,3.76c-0.412,1.272-0.919,2.517-1.52,3.736
		c-0.601,1.22-1.313,2.388-2.138,3.503c-0.824,1.117-1.751,2.138-2.782,3.066c-1.065,0.962-2.164,1.735-3.297,2.318
		c-1.133,0.584-2.301,1.04-3.503,1.366c-1.202,0.327-2.413,0.55-3.631,0.67c-1.22,0.121-2.448,0.181-3.684,0.181H1001.456z
		 M1005.578,429.006h8.398c1.579,0,3.091-0.094,4.533-0.283c1.443-0.188,2.954-0.661,4.534-1.417
		c1.374-0.618,2.576-1.459,3.606-2.524c1.03-1.064,1.915-2.223,2.653-3.477c0.739-1.254,1.34-2.567,1.804-3.941
		c0.464-1.373,0.833-2.696,1.107-3.967c0.275-1.34,0.472-2.706,0.592-4.096c0.12-1.392,0.078-2.713-0.128-3.968
		c-0.206-1.253-0.619-2.403-1.237-3.451c-0.618-1.047-1.494-1.915-2.627-2.602c-0.996-0.583-2.224-0.96-3.684-1.133
		c-1.46-0.172-2.962-0.258-4.507-0.258h-8.398L1005.578,429.006z"/>
</g>
</svg>
