<?xml version="1.0" encoding="utf-8"?>
<!-- Generator: Adobe Illustrator 16.0.0, SVG Export Plug-In . SVG Version: 6.00 Build 0)  -->
<!DOCTYPE svg PUBLIC "-//W3C//DTD SVG 1.1//EN" "http://www.w3.org/Graphics/SVG/1.1/DTD/svg11.dtd">
<svg version="1.1" id="Layer_1" xmlns="http://www.w3.org/2000/svg" xmlns:xlink="http://www.w3.org/1999/xlink" x="0px" y="0px"
	 width="3000.006px" height="911.333px" viewBox="93.744 94.177 3000.006 911.333"
	 enable-background="new 93.744 94.177 3000.006 911.333" xml:space="preserve">
<g id="SvgjsG1343" transform="matrix(27.84115706737437,0,0,27.84115706737437,-19.625230690148456,-20.946051478776706)">
	<title  xmlns="http://www.w3.org/2000/svg">abstract</title>
	<path fill="#6420EA" d="M34.383,19.425c0.083,1.066-0.218,1.354-1.092,1.213c-0.188,0.299-0.405,0.579-0.647,0.836
		c-0.381,0.184-0.838,0.024-1.022-0.357c-0.082-0.169-0.098-0.362-0.047-0.543c0.118-0.478,0.488-0.641,1.22-0.514
		c0.023-0.136,0.056-0.27,0.097-0.401c0.059-0.132,0.126-0.261,0.201-0.384l-0.02-0.078c-0.304-0.284-0.514-0.596-0.302-1.029
		c0.192-0.358,0.607-0.535,0.998-0.423c0.603,0.065,1.204,0.138,1.806,0.213c0.115,0.015,0.227,0.045,0.334,0.087
		c0.411,0.118,0.648,0.546,0.53,0.957c-0.109,0.378-0.484,0.615-0.872,0.549c-0.201-0.016-0.4-0.059-0.601-0.081
		C34.784,19.451,34.6,19.442,34.383,19.425z"/>
	<path fill="#6420EA" d="M26.003,18.348c-0.653-0.01-1.047-0.43-0.895-0.879c0.267-0.79,0.622-1.551,0.949-2.321
		c0.04-0.078,0.102-0.142,0.18-0.183c0.193-0.077,0.288-0.294,0.214-0.488c-0.088-0.386,0.142-0.773,0.523-0.88
		c0.359-0.107,0.745,0.047,0.931,0.373c0.192,0.362,0.069,0.811-0.28,1.026c-0.189,0.082-0.283,0.296-0.216,0.491
		c0.021,0.114,0.009,0.232-0.033,0.34c-0.256,0.66-0.49,1.332-0.804,1.964C26.444,18.053,26.134,18.226,26.003,18.348z"/>
	<path fill="#6420EA" d="M32.536,14.541c-0.369,0.02-0.709-0.198-0.845-0.541c-0.082-0.146-0.218-0.254-0.378-0.301
		c-0.404-0.051-0.707-0.396-0.704-0.803c0.001-0.377,0.278-0.696,0.65-0.75c0.412-0.072,0.696,0.127,0.898,0.565
		c0.078,0.127,0.211,0.211,0.36,0.226c0.533-0.005,1.065-0.059,1.598-0.082c0.419-0.066,0.813,0.221,0.879,0.64
		c0,0.002,0.001,0.004,0.001,0.007c0.074,0.408-0.197,0.799-0.604,0.873c-0.028,0.005-0.055,0.008-0.083,0.01
		C33.71,14.473,33.102,14.494,32.536,14.541z"/>
	<path fill="#6420EA" d="M29.477,28.316c-0.292-0.308-0.569-0.563-0.802-0.854c-0.312-0.335-0.296-0.858,0.035-1.174
		c0.326-0.288,0.756-0.214,1.155,0.156c0.316,0.294,0.652,0.567,1.005,0.816c0.409,0.176,0.598,0.65,0.423,1.059
		c-0.064,0.149-0.172,0.275-0.309,0.362c-0.09,0.088-0.15,0.201-0.174,0.324c-0.02,0.345-0.268,0.634-0.605,0.708
		c-0.303,0.086-0.628-0.03-0.808-0.288c-0.228-0.282-0.225-0.686,0.009-0.963L29.477,28.316z"/>
	<path fill="#6420EA" d="M17.558,4.823c0.389,0.027,0.706,0.323,0.759,0.709c0.102,0.45,0.157,0.911,0.272,1.357
		c0.051,0.185,0.157,0.35,0.304,0.474c0.32,0.2,0.454,0.598,0.32,0.95c-0.105,0.333-0.431,0.545-0.778,0.506
		c-0.379-0.005-0.697-0.289-0.744-0.665c-0.017-0.11-0.069-0.212-0.147-0.291C16.718,7.218,16.8,6.286,16.8,5.407
		C16.8,5.019,17.162,4.848,17.558,4.823z"/>
	<path fill="#6420EA" d="M27.65,32.282c-0.178,0.203-0.324,0.509-0.544,0.58c-0.282,0.061-0.577,0.016-0.829-0.125
		c-0.211-0.151-0.377-0.357-0.48-0.595c-0.29-0.513-0.551-1.042-0.782-1.584c-0.178-0.37-0.023-0.814,0.346-0.992
		c0.002-0.001,0.004-0.002,0.006-0.003c0.375-0.189,0.832-0.038,1.021,0.338c0.003,0.005,0.005,0.011,0.008,0.016
		c0.108,0.169,0.183,0.359,0.282,0.534c0.218,0.388,0.447,0.771,0.661,1.162C27.441,31.797,27.519,31.995,27.65,32.282z"/>
	<path fill="#6420EA" d="M33.808,23.35c-0.013,0.675-0.491,1.066-1.005,0.9c-0.614-0.204-1.211-0.459-1.782-0.763
		c-0.367-0.17-0.528-0.605-0.358-0.973c0.004-0.009,0.008-0.017,0.013-0.026c0.183-0.393,0.649-0.563,1.042-0.38
		c0.009,0.004,0.018,0.009,0.027,0.013c0.541,0.198,1.07,0.43,1.582,0.694C33.519,22.961,33.683,23.142,33.808,23.35z"/>
	<path fill="#6420EA" d="M19.237,30.479c0.068-0.39,0.113-0.793,0.214-1.18c0.083-0.359,0.434-0.589,0.796-0.521
		c0.371,0.001,0.67,0.302,0.669,0.673c0.021,0.66,0.016,1.324-0.025,1.983c-0.055,0.411-0.433,0.699-0.843,0.644
		c-0.273-0.037-0.505-0.221-0.602-0.479C19.348,31.231,19.278,30.857,19.237,30.479z"/>
	<path fill="#6420EA" d="M15.579,35.205c0.061-0.291,0.16-0.801,0.277-1.306c0.04-0.139,0.101-0.271,0.181-0.392
		c0.178-0.333,0.574-0.484,0.928-0.355c0.357,0.128,0.561,0.504,0.475,0.873c-0.096,0.554-0.203,1.106-0.32,1.656
		c-0.052,0.431-0.443,0.738-0.874,0.686c-0.01-0.001-0.019-0.002-0.029-0.004C15.796,36.298,15.551,35.943,15.579,35.205z"/>
	<path fill="#6420EA" d="M11.182,22.842c-0.104,0.182-0.229,0.352-0.372,0.506c-0.389,0.361-0.811,0.686-1.216,1.029
		c-0.238,0.23-0.6,0.273-0.885,0.104c-0.303-0.142-0.46-0.482-0.368-0.805c0.061-0.25,0.191-0.479,0.375-0.659
		c0.412-0.36,0.856-0.683,1.326-0.964C10.573,21.741,11.195,22.116,11.182,22.842z"/>
	<path fill="#6420EA" d="M13.005,8.138c-0.016,0.699-0.654,1.09-1.127,0.779c-0.594-0.369-1.055-0.918-1.318-1.566
		c-0.165-0.376-0.015-0.815,0.346-1.011c0.37-0.168,0.806-0.041,1.028,0.3c0.256,0.33,0.533,0.643,0.779,0.98
		C12.822,7.785,12.92,7.958,13.005,8.138z"/>
	<path fill="#6420EA" d="M28.333,21.448c-0.555,0.553-1.026,0.628-1.381,0.24c-0.298-0.313-0.285-0.809,0.028-1.106
		c0.006-0.006,0.012-0.011,0.018-0.017c0.4-0.353,0.864-0.237,1.343,0.338c0.59-0.542,1.037-0.609,1.393-0.211
		c0.285,0.334,0.25,0.835-0.078,1.126C29.257,22.156,28.794,22.032,28.333,21.448z"/>
	<path fill="#6420EA" d="M7.745,10.396c0.304,0.068,0.748,0.142,1.176,0.269c0.417,0.096,0.677,0.511,0.581,0.928
		c-0.096,0.417-0.511,0.677-0.928,0.581c-0.005-0.001-0.01-0.002-0.015-0.004c-0.4-0.057-0.799-0.131-1.191-0.225
		c-0.439-0.057-0.749-0.458-0.693-0.897c0-0.001,0-0.003,0.001-0.004C6.736,10.63,7.109,10.367,7.745,10.396z"/>
	<path fill="#6420EA" d="M21.977,11.999c-0.109,0.74-0.402,1.067-0.903,1.01c-0.436-0.055-0.748-0.448-0.704-0.885
		c0.079-0.538,0.456-0.73,1.145-0.642c0.184-0.313,0.395-0.611,0.628-0.89c0.096-0.099,0.36-0.091,0.53-0.054
		c0.41,0.099,0.663,0.512,0.564,0.922c-0.001,0.004-0.002,0.007-0.003,0.011C23.119,11.962,22.763,12.111,21.977,11.999z"/>
	<path fill="#6420EA" d="M25.309,12.191c-0.638-0.427-0.799-0.894-0.474-1.321c0.274-0.348,0.779-0.408,1.127-0.133
		c0.01,0.008,0.02,0.016,0.029,0.024c0.328,0.317,0.336,0.839,0.02,1.167c-0.041,0.043-0.087,0.081-0.136,0.113
		c0.209,0.271,0.387,0.563,0.531,0.873c0.022,0.212-0.044,0.425-0.183,0.587c-0.264,0.314-0.732,0.355-1.046,0.091
		c-0.012-0.01-0.023-0.02-0.035-0.031C24.734,13.188,24.781,12.739,25.309,12.191z"/>
	<path fill="#6420EA" d="M24.812,8.713c0.779,0.104,1.076,0.343,1.059,0.853c-0.001,0.392-0.305,0.717-0.696,0.745
		c-0.498,0.048-0.769-0.212-0.904-0.869c-0.856-0.175-1.109-0.381-1.085-0.884c0.016-0.374,0.301-0.68,0.672-0.725
		C24.347,7.775,24.6,8.009,24.812,8.713z"/>
	<path fill="#6420EA" d="M13.245,29.153c0.207-0.513,0.443-1.015,0.707-1.502c0.193-0.316,0.603-0.42,0.923-0.235
		c0.358,0.168,0.526,0.584,0.385,0.954c-0.12,0.397-0.247,0.792-0.377,1.186c-0.113,0.377-0.49,0.61-0.878,0.54
		c-0.418-0.08-0.701-0.471-0.648-0.893L13.245,29.153z"/>
	<path fill="#6420EA" d="M24.41,19.892c-0.095,0.187-0.224,0.355-0.38,0.495c-0.41,0.27-0.84,0.508-1.286,0.711
		c-0.354,0.185-0.792,0.048-0.977-0.306c-0.184-0.351-0.051-0.784,0.298-0.973c0.445-0.268,0.91-0.503,1.39-0.703
		C23.926,18.926,24.397,19.266,24.41,19.892z"/>
	<path fill="#6420EA" d="M29.068,18.01c0.104-0.056,0.202-0.122,0.293-0.196c0.269-0.283,0.702-0.336,1.031-0.126
		c0.309,0.194,0.433,0.582,0.295,0.919c-0.123,0.357-0.486,0.574-0.859,0.514c-0.158,0-0.31,0.055-0.431,0.156
		c-0.259,0.291-0.685,0.365-1.026,0.177c-0.319-0.174-0.469-0.55-0.357-0.896C28.114,18.176,28.46,17.974,29.068,18.01z"/>
	<path fill="#6420EA" d="M31.031,9.6c-0.589-0.007-1.025-0.592-0.738-1.028c0.336-0.474,0.748-0.889,1.219-1.23
		c0.265-0.178,0.623-0.107,0.801,0.158c0.011,0.017,0.022,0.035,0.031,0.053c0.15,0.247,0.185,0.547,0.095,0.821
		c-0.327,0.415-0.698,0.793-1.106,1.129C31.249,9.581,31.093,9.581,31.031,9.6z"/>
	<path fill="#6420EA" d="M7.487,17.165c0.363,0.049,0.667,0.299,0.785,0.646c0.122,0.331-0.036,0.699-0.36,0.839
		c-0.418,0.191-0.853,0.344-1.299,0.456c-0.409,0.06-0.79-0.223-0.85-0.632c-0.037-0.25,0.055-0.503,0.245-0.67
		C6.486,17.558,6.98,17.345,7.487,17.165z"/>
	<path fill="#6420EA" d="M4.072,22.229c0.123-0.558,0.975-1.526,1.464-1.539c0.262-0.008,0.515,0.099,0.693,0.292
		c0.133,0.242,0.147,0.531,0.039,0.784c-0.23,0.398-0.532,0.749-0.891,1.036c-0.236,0.144-0.526,0.171-0.785,0.074
		C4.367,22.771,4.241,22.453,4.072,22.229z"/>
	<path fill="#6420EA" d="M23.247,25.816c-0.334-0.028-0.624-0.241-0.75-0.552c-0.128-0.301-0.056-0.651,0.18-0.877
		c0.126-0.184,0.263-0.361,0.411-0.528c0.206-0.173,0.468-0.408,0.695-0.396c0.286,0.036,0.54,0.199,0.692,0.444
		c0.069,0.267,0.035,0.55-0.096,0.792c-0.13,0.266-0.308,0.505-0.525,0.706C23.666,25.562,23.462,25.699,23.247,25.816z"/>
	<path fill="#6420EA" d="M33.301,31.528c0.006,0.624-0.562,1.06-1.021,0.804c-0.414-0.25-0.778-0.575-1.072-0.959
		c-0.211-0.29-0.147-0.697,0.143-0.908c0.009-0.007,0.018-0.013,0.028-0.019c0.263-0.256,0.679-0.264,0.951-0.019
		c0.264,0.2,0.511,0.422,0.738,0.664C33.168,31.224,33.246,31.371,33.301,31.528z"/>
	<path fill="#6420EA" d="M8.043,26.227c0.412-0.001,0.746,0.331,0.748,0.743c0.001,0.159-0.05,0.314-0.144,0.442
		C8.402,27.749,8.1,28.04,7.755,28.273c-0.356,0.21-0.815,0.092-1.025-0.263c-0.072-0.121-0.108-0.26-0.104-0.4
		C6.803,26.921,7.35,26.387,8.043,26.227z"/>
	<path fill="#6420EA" d="M23.781,6.408c0.111-0.383,0.25-0.756,0.417-1.118c0.187-0.349,0.613-0.491,0.972-0.325
		c0.375,0.164,0.557,0.592,0.415,0.976c-0.071,0.264-0.141,0.528-0.23,0.786c-0.111,0.393-0.509,0.63-0.907,0.542
		C24.063,7.155,23.795,6.808,23.781,6.408z"/>
	<path fill="#6420EA" d="M6.153,13.526c0.137,0.005,0.273,0.022,0.407,0.048c0.36,0.053,0.624,0.366,0.617,0.73
		c0.046,0.366-0.21,0.702-0.575,0.753c-0.354,0.052-0.714,0.034-1.061-0.052c-0.388-0.093-0.627-0.484-0.533-0.872
		c0.003-0.014,0.007-0.028,0.011-0.041C5.124,13.668,5.464,13.478,6.153,13.526z"/>
	<path fill="#6420EA" d="M25.917,36.186c-0.152,0.233-0.341,0.438-0.561,0.608c-0.297,0.154-0.663,0.062-0.851-0.215
		c-0.323-0.364-0.431-0.871-0.284-1.334c0.13-0.258,0.357-0.454,0.631-0.545c0.324-0.094,0.664,0.089,0.764,0.411
		C25.737,35.464,25.837,35.823,25.917,36.186z"/>
	<path fill="#6420EA" d="M18.369,19.409c-0.223,0.252-0.367,0.55-0.589,0.629c-0.266,0.077-0.553,0.034-0.785-0.118
		c-0.256-0.231-0.455-0.518-0.582-0.838c-0.149-0.351,0-0.758,0.342-0.928c0.311-0.194,0.718-0.12,0.94,0.172
		C17.939,18.674,18.165,19.036,18.369,19.409z"/>
	<path fill="#6420EA" d="M11.591,12.38c0.646,0.006,1.129,0.397,1.112,0.9c-0.017,0.422-0.373,0.751-0.795,0.734
		c-0.002,0-0.004,0-0.006,0c-0.691-0.004-1.146-0.34-1.15-0.848c-0.008-0.427,0.332-0.78,0.759-0.789
		C11.537,12.377,11.564,12.378,11.591,12.38z"/>
	<path fill="#6420EA" d="M35.099,25.34c0.644,0.036,1.15,0.483,1.111,0.979c-0.04,0.43-0.422,0.746-0.852,0.706
		c-0.008-0.001-0.015-0.002-0.023-0.002c-0.541,0-0.998-0.403-1.065-0.94c0.003-0.415,0.342-0.749,0.757-0.746
		C35.051,25.336,35.075,25.337,35.099,25.34z"/>
	<path fill="#6420EA" d="M20.47,18.627c0.085-0.545,0.56-0.944,1.112-0.932c0.423,0.015,0.753,0.369,0.739,0.792
		c0,0.001,0,0.002,0,0.004c-0.098,0.539-0.554,0.939-1.102,0.965c-0.427-0.012-0.763-0.369-0.751-0.796
		C20.469,18.649,20.469,18.638,20.47,18.627z"/>
	<circle fill="#6420EA" cx="20.285" cy="23.214" r="0.779"/>
	<circle fill="#6420EA" cx="18.218" cy="20.966" r="0.783"/>
	<circle fill="#6420EA" cx="17.718" cy="14.595" r="0.785"/>
	<circle fill="#6420EA" cx="18.857" cy="10.588" r="0.786"/>
	<circle fill="#6420EA" cx="10.938" cy="26.904" r="0.785"/>
	<circle fill="#6420EA" cx="19.715" cy="14.222" r="0.781"/>
	<circle fill="#6420EA" cx="29.327" cy="9.598" r="0.787"/>
	<circle fill="#6420EA" cx="29.206" cy="12.09" r="0.783"/>
	<circle fill="#6420EA" cx="15.877" cy="11.067" r="0.78"/>
	<circle fill="#6420EA" cx="22.714" cy="28.584" r="0.781"/>
	<circle fill="#6420EA" cx="36.885" cy="15.467" r="0.784"/>
	<circle fill="#6420EA" cx="26.526" cy="26.897" r="0.784"/>
	<circle fill="#6420EA" cx="17.908" cy="29.397" r="0.785"/>
	<circle fill="#6420EA" cx="15.034" cy="15.732" r="0.782"/>
	<circle fill="#6420EA" cx="10.851" cy="17.973" r="0.784"/>
	<circle fill="#6420EA" cx="29.081" cy="16.596" r="0.782"/>
	<circle fill="#6420EA" cx="24.655" cy="22.466" r="0.783"/>
	<circle fill="#6420EA" cx="27.15" cy="8.73" r="0.782"/>
	<circle fill="#6420EA" cx="15.102" cy="23.898" r="0.779"/>
	<circle fill="#6420EA" cx="31.893" cy="16.041" r="0.781"/>
	<circle fill="#6420EA" cx="21.654" cy="26.019" r="0.783"/>
	<circle fill="#6420EA" cx="21.975" cy="8.97" r="0.781"/>
	<circle fill="#6420EA" cx="10.604" cy="31.385" r="0.779"/>
	<circle fill="#6420EA" cx="22.215" cy="34.449" r="0.785"/>
	<circle fill="#6420EA" cx="21.031" cy="4.916" r="0.781"/>
	<circle fill="#6420EA" cx="23.797" cy="16.652" r="0.786"/>
	<circle fill="#6420EA" cx="13.918" cy="21.024" r="0.786"/>
	<circle fill="#6420EA" cx="19.409" cy="17.094" r="0.783"/>
	<circle fill="#6420EA" cx="14.422" cy="17.784" r="0.781"/>
	<circle fill="#6420EA" cx="28.708" cy="5.477" r="0.78"/>
	<circle fill="#6420EA" cx="29.696" cy="14.968" r="0.782"/>
	<circle fill="#6420EA" cx="36.951" cy="22.022" r="0.782"/>
	<circle fill="#6420EA" cx="15.785" cy="12.911" r="0.779"/>
	<circle fill="#6420EA" cx="28.897" cy="24.145" r="0.783"/>
	<circle fill="#6420EA" cx="26.525" cy="23.575" r="0.778"/>
	<circle fill="#6420EA" cx="33.516" cy="10.724" r="0.78"/>
	<circle fill="#6420EA" cx="27.84" cy="25.519" r="0.778"/>
	<circle fill="#6420EA" cx="31.891" cy="25.581" r="0.782"/>
	<circle fill="#6420EA" cx="23.59" cy="14.164" r="0.778"/>
	<circle fill="#6420EA" cx="20.905" cy="15.472" r="0.778"/>
	<circle fill="#6420EA" cx="18.558" cy="25.335" r="0.781"/>
</g>
<g id="SvgjsG1344" transform="matrix(3.0506379080488877,0,0,3.0506379080488877,115.79024080167689,9.550351806009669)">
	<path fill="#0F0F0F" d="M433.738,75.138c11.25,0,20.595,3.469,28.031,10.406c7.436,6.937,11.156,15.781,11.156,26.531
		c0,16.75-7.062,27.938-21.187,33.563v0.375c4.75,1.375,8.468,3.656,11.156,6.843c2.688,3.188,4.719,6.906,6.094,11.156
		c1.375,4.251,2.25,11.063,2.625,20.438c0.5,12.25,2.25,20.438,5.25,24.563h-29.437c-1.625-4.125-2.875-11.875-3.75-23.25
		c-1-12-3.187-19.843-6.562-23.531c-3.375-3.688-8.875-5.531-16.5-5.531h-29.625v52.312h-29.437V75.138H433.738L433.738,75.138z
		 M423.426,135.701c6.25,0,11.156-1.406,14.719-4.219c3.563-2.813,5.344-7.781,5.344-14.906c0-6.75-1.75-11.531-5.25-14.344
		c-3.5-2.813-8.5-4.219-15-4.219h-32.25V135.7h32.437V135.701z M538.926,109.451c9.125,0,17.25,2.125,24.375,6.375
		c7.125,4.25,12.719,10.406,16.781,18.469c4.062,8.063,6.094,17.343,6.094,27.844c0,0.999-0.062,2.625-0.187,4.875h-69.938
		c0.25,7.75,2.281,13.781,6.094,18.094c3.812,4.313,9.656,6.469,17.531,6.469c4.875,0,9.344-1.219,13.406-3.656
		c4.062-2.437,6.656-5.406,7.781-8.906H584.3c-6.875,21.75-21.999,32.625-45.375,32.625c-8.875-0.125-17.094-2.063-24.656-5.813
		c-7.563-3.75-13.594-9.593-18.094-17.531c-4.5-7.938-6.75-17.156-6.75-27.656c0-9.875,2.281-18.876,6.844-27
		c4.562-8.124,10.625-14.187,18.188-18.187C522.02,111.45,530.176,109.451,538.926,109.451L538.926,109.451z M559.363,150.138
		c-1.25-7.25-3.562-12.5-6.938-15.75c-3.375-3.25-8.187-4.875-14.437-4.875c-6.5,0-11.625,1.844-15.375,5.531
		c-3.75,3.688-5.938,8.719-6.563,15.094H559.363z M648.238,109.451c13.125,0,23.813,3.344,32.062,10.031
		c8.25,6.688,12.75,15.594,13.5,26.719h-26.062c-1.75-11.126-8.312-16.688-19.688-16.688c-7,0-12.532,2.875-16.594,8.625
		c-4.062,5.75-6.094,13.375-6.094,22.875c0,9.125,1.938,16.5,5.813,22.125c3.875,5.624,9.312,8.438,16.312,8.438
		c12.125,0,19.187-6.562,21.187-19.687h25.688c-1.75,12.874-6.719,22.719-14.906,29.531c-8.188,6.812-18.782,10.219-31.781,10.219
		c-14.375,0-26.124-4.594-35.25-13.781c-9.126-9.187-13.688-21.156-13.688-35.906c0-16,4.5-28.749,13.5-38.25
		C621.238,114.2,633.238,109.451,648.238,109.451z M753.988,109.451c28.251,0.125,42.375,9.312,42.375,27.562v51.375
		c0,9.5,1.125,16.375,3.375,20.625h-27c-1-2.999-1.625-6.124-1.875-9.375c-7.875,8-18.75,12.001-32.625,12.001
		c-10.125,0-18.156-2.562-24.094-7.687c-5.937-5.125-8.906-12.25-8.906-21.375c0-8.875,2.813-15.75,8.437-20.625
		c5.75-5.125,16.188-8.375,31.313-9.75c10.75-1.125,17.562-2.531,20.438-4.219c2.875-1.688,4.313-4.281,4.313-7.781
		c0-4.375-1.312-7.625-3.937-9.75c-2.625-2.125-7-3.187-13.125-3.187c-5.625,0-9.875,1.156-12.75,3.469
		c-2.875,2.312-4.562,6.031-5.063,11.156h-26.625c0.625-10.625,5-18.687,13.125-24.188
		C729.489,112.2,740.363,109.451,753.988,109.451L753.988,109.451z M731.863,181.451c0,8.249,5.438,12.374,16.313,12.374
		c14.25-0.125,21.437-7.438,21.562-21.937v-10.313c-2.125,2.125-7.5,3.688-16.125,4.687c-7.5,0.875-13,2.407-16.5,4.594
		C733.614,173.045,731.863,176.576,731.863,181.451z M844.363,75.138v133.875h-26.625V75.138H844.363z M892.738,75.138v133.875
		h-26.625V75.138H892.738z M970.363,109.451c2.25,0,4.188,0.313,5.813,0.938v24.75c-2.875-0.625-6.062-0.937-9.563-0.937
		c-17.5,0-26.25,10.375-26.25,31.125v43.688h-26.625v-96.938h25.313v18h0.375c2.625-6.25,6.781-11.25,12.469-15
		C957.582,111.326,963.738,109.451,970.363,109.451L970.363,109.451z"/>
</g>
<g enable-background="new    ">
	<path fill="#231F20" d="M1223.727,861.358l17.901-84.24h30.42c4.914,0,9.027,0.509,12.344,1.521
		c3.314,1.015,5.868,2.457,7.664,4.329c1.793,1.872,2.943,4.115,3.451,6.728c0.506,2.614,0.41,5.48-0.292,8.599
		c-0.625,2.966-1.561,5.52-2.808,7.664c-1.249,2.146-2.652,3.939-4.212,5.382c-1.561,1.444-3.237,2.574-5.031,3.394
		c-1.795,0.818-3.55,1.385-5.265,1.696l-0.117,0.233c5.616,0.859,9.457,3.159,11.525,6.903c2.065,3.744,2.515,8.424,1.345,14.04
		c-0.936,4.369-2.398,8.073-4.387,11.115c-1.989,3.042-4.408,5.499-7.254,7.371c-2.848,1.872-6.045,3.217-9.594,4.036
		c-3.55,0.819-7.312,1.229-11.291,1.229H1223.727z M1233.087,854.572h20.241c4.367,0,8.208-0.193,11.524-0.585
		c3.314-0.39,6.181-1.188,8.6-2.398c2.417-1.208,4.367-2.925,5.85-5.148c1.481-2.223,2.613-5.166,3.393-8.833
		c0.702-3.51,0.702-6.336,0-8.482c-0.702-2.145-2.009-3.803-3.919-4.973c-1.912-1.17-4.349-1.969-7.312-2.398
		c-2.965-0.428-6.318-0.644-10.062-0.644h-21.177L1233.087,854.572z M1241.628,814.324h20.124c4.133,0,7.682-0.351,10.647-1.053
		c2.963-0.702,5.459-1.735,7.488-3.101c2.027-1.364,3.627-3.042,4.797-5.031c1.17-1.988,2.027-4.271,2.574-6.845
		c0.545-2.65,0.585-4.894,0.117-6.727c-0.468-1.832-1.521-3.314-3.159-4.446c-1.638-1.13-3.901-1.949-6.786-2.457
		c-2.887-0.507-6.514-0.761-10.881-0.761h-18.369L1241.628,814.324z"/>
	<path fill="#231F20" d="M1324.697,861.358l17.901-84.24h56.043l-1.404,6.786h-48.087l-6.552,30.42h43.407l-1.404,6.786h-43.407
		l-7.137,33.462h49.257l-1.404,6.786H1324.697z"/>
	<path fill="#231F20" d="M1474.222,861.358l17.901-84.24h30.771c5.459,0,9.828,0.625,13.104,1.872
		c3.276,1.249,5.713,2.966,7.312,5.148c1.599,2.185,2.516,4.7,2.749,7.546c0.234,2.849,0,5.832-0.701,8.951
		c-1.015,4.68-2.79,8.541-5.324,11.583c-2.535,3.042-5.519,5.44-8.95,7.195c-3.433,1.755-7.137,2.983-11.114,3.686
		c-3.979,0.702-7.918,1.053-11.817,1.053h-18.018l-7.956,37.206H1474.222z M1509.79,817.366c3.744,0,7.137-0.233,10.18-0.702
		c3.041-0.468,5.732-1.345,8.072-2.632s4.309-3.042,5.908-5.266c1.598-2.223,2.789-5.128,3.568-8.716
		c1.17-5.304,0.312-9.32-2.573-12.052c-2.887-2.729-8.113-4.095-15.679-4.095h-20.591l-7.137,33.462H1509.79z"/>
	<path fill="#231F20" d="M1585.021,823.099l-8.19,38.259l-7.956-0.117l17.901-84.123h32.993c9.282,0,16.01,1.737,20.184,5.207
		c4.172,3.472,5.439,9.107,3.803,16.906c-1.094,5.305-3.062,9.518-5.909,12.636c-2.849,3.121-6.923,5.773-12.227,7.956
		c2.34,0.859,4.036,2.106,5.089,3.744c1.054,1.638,1.715,3.51,1.99,5.616c0.271,2.105,0.252,4.329-0.059,6.669
		c-0.312,2.34-0.664,4.604-1.054,6.786c-0.625,3.199-1.073,5.85-1.345,7.956c-0.275,2.105-0.41,3.822-0.41,5.147
		c0,1.327,0.117,2.36,0.352,3.101c0.233,0.742,0.584,1.308,1.053,1.696l-0.117,0.702l-8.775,0.117
		c-0.547-1.48-0.742-3.451-0.584-5.908c0.154-2.457,0.428-5.05,0.818-7.781c0.389-2.729,0.818-5.399,1.287-8.014
		c0.468-2.612,0.701-4.698,0.701-6.26c0-2.262-0.391-4.075-1.17-5.44c-0.779-1.364-1.812-2.398-3.1-3.101s-2.828-1.17-4.621-1.404
		c-1.796-0.233-3.668-0.351-5.617-0.351H1585.021z M1611.228,816.313c2.964,0,5.792-0.311,8.482-0.937
		c2.691-0.623,5.108-1.617,7.255-2.983c2.144-1.363,3.978-3.101,5.499-5.206c1.521-2.106,2.592-4.64,3.217-7.605
		c0.703-3.118,0.703-5.692,0-7.722c-0.701-2.027-1.871-3.627-3.51-4.797c-1.638-1.17-3.646-1.989-6.025-2.457
		c-2.38-0.468-4.896-0.702-7.547-0.702h-25.271l-6.902,32.409H1611.228z"/>
	<path fill="#231F20" d="M1669.962,861.358l17.9-84.24h56.043l-1.404,6.786h-48.086l-6.553,30.42h43.407l-1.404,6.786h-43.407
		l-7.137,33.462h49.258l-1.404,6.786H1669.962z"/>
	<path fill="#231F20" d="M1764.028,861.358l17.9-84.24h30.771c5.459,0,9.828,0.625,13.104,1.872
		c3.277,1.249,5.713,2.966,7.312,5.148c1.599,2.185,2.516,4.7,2.75,7.546c0.234,2.849,0,5.832-0.701,8.951
		c-1.016,4.68-2.791,8.541-5.324,11.583c-2.535,3.042-5.52,5.44-8.951,7.195c-3.433,1.755-7.137,2.983-11.114,3.686
		s-7.917,1.053-11.817,1.053h-18.018l-7.956,37.206H1764.028z M1799.597,817.366c3.744,0,7.137-0.233,10.179-0.702
		c3.042-0.468,5.733-1.345,8.073-2.632s4.309-3.042,5.908-5.266c1.598-2.223,2.788-5.128,3.568-8.716
		c1.17-5.304,0.311-9.32-2.574-12.052c-2.887-2.729-8.113-4.095-15.678-4.095h-20.592l-7.137,33.462H1799.597z"/>
	<path fill="#231F20" d="M1851.075,861.358l51.013-84.24h9.009l14.391,84.24h-8.189l-4.096-26.442h-38.375l-15.562,26.442H1851.075z
		 M1878.922,828.13h32.994l-7.021-44.227L1878.922,828.13z"/>
	<path fill="#231F20" d="M1975.796,823.099l-8.189,38.259l-7.956-0.117l17.901-84.123h32.994c9.281,0,16.008,1.737,20.182,5.207
		c4.172,3.472,5.441,9.107,3.803,16.906c-1.093,5.305-3.062,9.518-5.908,12.636c-2.848,3.121-6.924,5.773-12.227,7.956
		c2.34,0.859,4.037,2.106,5.09,3.744s1.715,3.51,1.988,5.616c0.273,2.105,0.252,4.329-0.059,6.669
		c-0.312,2.34-0.663,4.604-1.053,6.786c-0.625,3.199-1.072,5.85-1.346,7.956c-0.273,2.105-0.409,3.822-0.409,5.147
		c0,1.327,0.117,2.36,0.351,3.101c0.234,0.742,0.586,1.308,1.054,1.696l-0.117,0.702l-8.774,0.117
		c-0.547-1.48-0.742-3.451-0.586-5.908s0.428-5.05,0.819-7.781c0.39-2.729,0.819-5.399,1.287-8.014
		c0.468-2.612,0.702-4.698,0.702-6.26c0-2.262-0.392-4.075-1.17-5.44c-0.781-1.364-1.814-2.398-3.101-3.101
		c-1.287-0.702-2.828-1.17-4.622-1.404c-1.795-0.233-3.667-0.351-5.615-0.351H1975.796z M2002.005,816.313
		c2.963,0,5.791-0.311,8.482-0.937c2.691-0.623,5.107-1.617,7.254-2.983c2.145-1.363,3.979-3.101,5.499-5.206
		c1.521-2.106,2.593-4.64,3.218-7.605c0.701-3.118,0.701-5.692,0-7.722c-0.703-2.027-1.873-3.627-3.51-4.797
		c-1.639-1.17-3.648-1.989-6.026-2.457c-2.38-0.468-4.896-0.702-7.546-0.702h-25.272l-6.903,32.409H2002.005z"/>
	<path fill="#231F20" d="M2060.737,861.358l17.901-84.24h56.043l-1.403,6.786h-48.088l-6.552,30.42h43.407l-1.404,6.786h-43.406
		l-7.138,33.462h49.257l-1.404,6.786H2060.737z"/>
	<path fill="#231F20" d="M2155.155,861.358l17.901-84.24h28.782c2.34,0,4.621,0.059,6.844,0.176
		c2.224,0.117,4.389,0.392,6.494,0.819c2.105,0.43,4.113,1.072,6.025,1.93c1.91,0.859,3.686,1.989,5.324,3.394
		c2.34,2.029,4.094,4.504,5.264,7.43c1.171,2.925,1.949,6.007,2.341,9.243c0.39,3.237,0.428,6.513,0.116,9.827
		c-0.312,3.316-0.742,6.377-1.286,9.185c-0.626,2.809-1.404,5.656-2.341,8.541c-0.936,2.887-2.087,5.715-3.451,8.482
		c-1.365,2.77-2.983,5.423-4.855,7.956c-1.871,2.536-3.978,4.855-6.318,6.962c-2.418,2.185-4.914,3.939-7.487,5.265
		c-2.574,1.327-5.227,2.36-7.956,3.101c-2.731,0.742-5.48,1.249-8.248,1.521c-2.77,0.273-5.559,0.409-8.366,0.409H2155.155z
		 M2164.516,854.572h19.071c3.586,0,7.02-0.214,10.296-0.644c3.276-0.428,6.708-1.501,10.296-3.218
		c3.119-1.403,5.85-3.313,8.189-5.732c2.34-2.417,4.348-5.05,6.025-7.897c1.678-2.847,3.043-5.83,4.096-8.95
		c1.053-3.119,1.891-6.123,2.516-9.01c0.623-3.042,1.071-6.143,1.346-9.301c0.271-3.159,0.176-6.161-0.293-9.01
		c-0.468-2.846-1.404-5.458-2.809-7.839c-1.403-2.378-3.393-4.347-5.967-5.908c-2.263-1.325-5.051-2.183-8.365-2.574
		c-3.316-0.39-6.727-0.585-10.237-0.585h-19.071L2164.516,854.572z"/>
</g>
</svg>
