<svg xmlns="http://www.w3.org/2000/svg" width="100" height="100" viewBox="0 0 100 100" fill="#F15F4B">
  <path d="M47.0619 51.9019l23.7482-.5163c.5175 3.5502 2.3599 6.7728 5.1566 9.0197 2.7968 2.2472 6.3405 3.352 9.9189 3.0926 3.5782-.2593 6.9255-1.8639 9.369-4.4908 2.4433-2.6271 3.8016-6.0816 3.8016-9.6693s-1.3583-7.0422-3.8016-9.6693c-2.4435-2.6269-5.7908-4.2315-9.369-4.4908-3.5784-.2596-7.1221.8454-9.9189 3.0926-2.7967 2.2469-4.6391 5.4695-5.1566 9.0196l-23.7482.5163c-.3136-3.4855-1.4075-6.8557-3.2009-9.8607L63.4275 23.645c1.316 1.473 2.9284 2.6513 4.7314 3.4581 1.8032.8066 3.7562 1.2232 5.7316 1.2227 2.8018.0034 5.5418-.8243 7.8731-2.3785 2.3314-1.5543 4.1494-3.7649 5.2239-6.3526 1.0747-2.5876 1.3576-5.4358.8131-8.1843-.5447-2.74846-1.8921-5.27365-3.8722-7.2561-1.98-1.98242-4.5035-3.333021-7.2514-3.880896-2.7478-.547875-5.5964-.2684087-8.1853.803036-2.5889 1.07145-4.8019 2.88673-6.3588 5.21619-1.5571 2.32944-2.3881 5.06837-2.3881 7.87027-.0258 2.1048.4273 4.1879 1.3251 6.0919L41.5034 34.6242c-3.1151-3.6618-7.276-6.2831-11.9242-7.5116-4.6481-1.2288-9.5607-1.0057-14.0784.6386-4.5177 1.6445-8.42419 4.6317-11.19492 8.5607C1.53515 40.2408.0327974 44.9236.0005308 49.731-.0317341 54.5387 1.40764 59.241 4.12538 63.2069c2.71774 3.9658 6.58372 7.0052 11.07902 8.7101 4.4952 1.7049 9.4044 1.9937 14.0685.8276 4.6643-1.1661 8.86-3.7312 12.024-7.3509l19.446 13.767c-1.6703 3.1863-2.0719 6.8869-1.1241 10.3574.9479 3.4703 3.1749 6.4529 6.2329 8.3478 3.0582 1.8947 6.7203 2.5611 10.2498 1.8651 3.5295-.6961 6.6645-2.703 8.7741-5.6171 2.1096-2.914 3.0374-6.5189 2.5966-10.0892-.4407-3.5704-2.2171-6.8414-4.9721-9.155-2.755-2.3135-6.2838-3.4979-9.8767-3.3148-3.5929.1831-6.983 1.7201-9.4884 4.3017l-19.4116-13.767c1.8888-3.0906 3.032-6.5786 3.3385-10.1877zM73.8905 4.0785c1.9952-.00341 3.9465.58513 5.6072 1.69115 1.6606 1.10601 2.9559 2.6798 3.7217 4.52215.766 1.8424.9682 3.8706.581 5.8279-.3872 1.9573-1.3463 3.7558-2.7558 5.1678-1.4098 1.412-3.2066 2.3742-5.1632 2.7648-1.9567.3905-3.9852.1917-5.8288-.571-1.8438-.7629-3.4198-2.0552-4.5285-3.714-1.109-1.6588-1.7008-3.6092-1.7008-5.6044.0045-2.6702 1.0661-5.22995 2.9525-7.11968 1.8865-1.8897 4.4446-2.95563 7.1147-2.96472zm-.6023 71.5028c1.9959-.0034 3.948.5856 5.609 1.6923 1.661 1.1069 2.9562 2.6817 3.7216 4.5249.7655 1.8434.9665 3.8725.5781 5.8304-.3886 1.9577-1.3495 3.7562-2.7608 5.1675-1.4113 1.4114-3.2098 2.3722-5.1677 2.7608-1.9577.3885-3.9868.1874-5.8302-.5781-1.8434-.7654-3.4182-2.0606-4.5249-3.7216-1.1067-1.661-1.6957-3.6131-1.6923-5.609.0045-2.6686 1.0666-5.2265 2.9536-7.1136 1.8869-1.887 4.445-2.9491 7.1136-2.9536zM84.8009 39.219c1.9952-.0035 3.9467.5851 5.6072 1.6911 1.6606 1.106 2.9559 2.6798 3.7217 4.5221.766 1.8424.9682 3.8707.581 5.828-.3872 1.9573-1.3462 3.7558-2.7558 5.1678-1.4098 1.412-3.2065 2.3742-5.1632 2.7648-1.9566.3905-3.9852.1917-5.8288-.571-1.8438-.7629-3.4197-2.0553-4.5285-3.714-1.109-1.6588-1.7008-3.6092-1.7008-5.6044.0045-2.6702 1.0661-5.23 2.9526-7.1197 1.8864-1.8897 4.4445-2.9556 7.1146-2.9647zM23.6062 69.3689c-3.8494 0-7.6125-1.1415-10.8132-3.2802-3.20073-2.1385-5.69538-5.1783-7.16851-8.7349-1.47311-3.5563-1.85855-7.4696-1.10756-11.2452.751-3.7755 2.60468-7.2434 5.32666-9.9655 2.72201-2.722 6.19001-4.5757 9.96551-5.3267 3.7754-.751 7.6889-.3655 11.2453 1.1076 3.5565 1.4731 6.5961 3.9678 8.7349 7.1685 2.1387 3.2007 3.2801 6.9637 3.2801 10.8132-.0046 5.1606-2.0566 10.1085-5.7057 13.7574-3.649 3.6492-8.5969 5.7013-13.7575 5.7058z" />
</svg>
