<?xml version="1.0" encoding="utf-8"?>
<!-- Generator: Adobe Illustrator 16.0.0, SVG Export Plug-In . SVG Version: 6.00 Build 0)  -->
<!DOCTYPE svg PUBLIC "-//W3C//DTD SVG 1.1//EN" "http://www.w3.org/Graphics/SVG/1.1/DTD/svg11.dtd">
<svg version="1.1" id="Layer_1" xmlns="http://www.w3.org/2000/svg" xmlns:xlink="http://www.w3.org/1999/xlink" x="0px" y="0px"
	 width="73.616px" height="73.617px" viewBox="0 2.002 73.616 73.617" enable-background="new 0 2.002 73.616 73.617"
	 xml:space="preserve">
<circle fill="#9DA1A6" cx="37.935" cy="261.328" r="36.808"/>
<circle fill="#9DA1A6" cx="36.538" cy="151.833" r="36.808"/>
<path fill="#FFFFFF" d="M51.316,275.838c-0.14,0-0.278-0.025-0.414-0.074l-14.562-5.262c-0.632-0.229-0.957-0.923-0.729-1.555
	c0.229-0.633,0.926-0.953,1.554-0.729l13.083,4.728l2.493-27.791l-32.087,16.754l10.05,3.889c0.626,0.242,0.936,0.946,0.694,1.572
	c-0.242,0.626-0.946,0.934-1.571,0.693l-12.549-4.857c-0.444-0.172-0.748-0.588-0.776-1.064c-0.028-0.475,0.229-0.922,0.649-1.145
	l36.434-19.026c0.396-0.202,0.869-0.179,1.24,0.067c0.368,0.246,0.573,0.676,0.534,1.118l-2.834,31.575
	c-0.035,0.375-0.238,0.713-0.559,0.916C51.771,275.773,51.546,275.838,51.316,275.838z"/>
<path fill="#FFFFFF" d="M32.695,280.821c-0.038,0-0.077-0.003-0.113-0.005c-0.538-0.051-0.978-0.45-1.079-0.979l-2.429-12.674
	c-0.076-0.396,0.049-0.806,0.333-1.09l23.886-23.884c0.439-0.44,1.146-0.477,1.626-0.084c0.481,0.396,0.589,1.093,0.246,1.611
	l-17.329,26.208l-4.013,10.13C33.639,280.521,33.19,280.821,32.695,280.821L32.695,280.821z M31.581,267.334l1.522,7.945
	l2.521-6.367c0.033-0.078,0.07-0.152,0.115-0.225l10.762-16.277L31.581,267.334z"/>
<path fill="#FFFFFF" d="M32.695,280.821c-0.332,0-0.664-0.138-0.904-0.404c-0.448-0.498-0.408-1.267,0.093-1.714l9.187-8.251
	c0.5-0.447,1.268-0.407,1.717,0.093c0.447,0.499,0.408,1.268-0.094,1.715l-9.188,8.25C33.273,280.719,32.985,280.821,32.695,280.821
	L32.695,280.821z"/>
<g>
	<path fill="#FFFFFF" stroke="#FFFFFF" stroke-miterlimit="10" d="M52.402,134.756H20.486c-2.418,0-4.384,1.967-4.384,4.385v24.256
		c0,2.416,1.966,4.384,4.384,4.384h12.272l2.843,2.842c0.232,0.233,0.537,0.349,0.842,0.349c0.305,0,0.611-0.117,0.843-0.349
		l2.843-2.842H52.4c2.418,0,4.386-1.968,4.386-4.384v-24.256C56.787,136.723,54.82,134.756,52.402,134.756z M54.402,163.396
		c0,1.104-0.896,2-2,2H39.636c-0.315,0-0.618,0.125-0.843,0.35l-2.349,2.349l-2.348-2.349c-0.224-0.225-0.527-0.35-0.843-0.35
		H20.486c-1.103,0-2-0.896-2-2v-24.256c0-1.103,0.897-2,2-2h31.917c1.104,0,2,0.897,2,2V163.396L54.402,163.396z"/>
	<path fill="#FFFFFF" stroke="#FFFFFF" stroke-miterlimit="10" d="M44.141,143.495c-3.171,0-5.752,2.58-5.752,5.751
		c0,1.258,0.407,2.42,1.094,3.368h-7.098c0.688-0.947,1.094-2.11,1.094-3.368c0-3.171-2.581-5.751-5.752-5.751
		s-5.751,2.58-5.751,5.751c0,3.172,2.58,5.752,5.751,5.752h16.416c3.17,0,5.75-2.581,5.75-5.752
		C49.893,146.074,47.312,143.495,44.141,143.495z M24.358,149.246c0-1.855,1.511-3.367,3.368-3.367s3.368,1.512,3.368,3.367
		c0,1.857-1.511,3.368-3.368,3.368S24.358,151.104,24.358,149.246z M44.141,152.614c-1.856,0-3.367-1.511-3.367-3.368
		s1.51-3.367,3.367-3.367s3.368,1.51,3.368,3.367S45.998,152.614,44.141,152.614z"/>
</g>
<circle fill="#9DA1A6" cx="36.808" cy="38.811" r="36.808"/>
<g>
	<g>
		<g>
			<path fill="#FFFFFF" stroke="#FFFFFF" stroke-miterlimit="10" d="M57.303,48.078l-2.384-6.938
				c1.149-2.35,1.756-4.963,1.761-7.592c0.006-4.571-1.763-8.894-4.979-12.17c-3.22-3.278-7.509-5.123-12.079-5.195
				c-4.739-0.075-9.193,1.728-12.542,5.076c-3.229,3.229-5.02,7.485-5.076,12.034c-3.183,2.396-5.062,6.133-5.055,10.124
				c0.003,1.866,0.424,3.723,1.22,5.402L16.526,53.6c-0.282,0.82-0.076,1.713,0.538,2.326c0.432,0.434,1.002,0.663,1.589,0.663
				c0.247,0,0.496-0.041,0.739-0.125l4.779-1.642c1.679,0.796,3.535,1.216,5.402,1.219c0.007,0,0.014,0,0.021,0
				c4.05,0,7.814-1.926,10.201-5.188c2.485-0.065,4.943-0.666,7.165-1.754l6.938,2.385c0.289,0.1,0.586,0.146,0.879,0.146
				c0.697,0,1.373-0.273,1.888-0.788C57.395,50.115,57.639,49.055,57.303,48.078z M29.592,53.6c-0.004,0-0.01,0-0.016,0
				c-1.653-0.002-3.294-0.412-4.746-1.18c-0.299-0.157-0.649-0.186-0.968-0.074l-4.901,1.684l1.684-4.901
				c0.11-0.319,0.083-0.67-0.076-0.969c-0.768-1.452-1.175-3.093-1.178-4.746c-0.004-2.658,1.03-5.179,2.839-7.066
				c0.59,3.602,2.307,6.92,4.967,9.534c2.641,2.594,5.96,4.245,9.542,4.785C34.848,52.53,32.298,53.6,29.592,53.6z M54.936,49.117
				c-0.068,0.07-0.151,0.088-0.244,0.056l-7.428-2.551c-0.13-0.045-0.264-0.067-0.397-0.067c-0.197,0-0.394,0.047-0.571,0.142
				c-2.121,1.122-4.518,1.717-6.931,1.721c-0.009,0-0.017,0-0.023,0c-8.086,0-14.767-6.569-14.894-14.655
				c-0.065-4.071,1.484-7.897,4.36-10.774c2.877-2.876,6.704-4.424,10.775-4.36c8.093,0.128,14.667,6.82,14.654,14.917
				c-0.004,2.414-0.598,4.81-1.721,6.933c-0.158,0.299-0.186,0.648-0.076,0.969l2.553,7.428
				C55.025,48.965,55.005,49.047,54.936,49.117z"/>
		</g>
	</g>
	<g>
		<g>
			<path fill="#FFFFFF" stroke="#FFFFFF" stroke-miterlimit="10" d="M46.618,27.046H32.062c-0.675,0-1.223,0.547-1.223,1.222
				c0,0.674,0.548,1.221,1.223,1.221h14.556c0.675,0,1.222-0.547,1.222-1.221C47.84,27.593,47.293,27.046,46.618,27.046z"/>
		</g>
	</g>
	<g>
		<g>
			<path fill="#FFFFFF" stroke="#FFFFFF" stroke-miterlimit="10" d="M46.618,32.07H32.062c-0.675,0-1.223,0.548-1.223,1.221
				c0,0.675,0.548,1.222,1.223,1.222h14.556c0.675,0,1.222-0.547,1.222-1.222C47.84,32.618,47.293,32.07,46.618,32.07z"/>
		</g>
	</g>
	<g>
		<g>
			<path fill="#FFFFFF" stroke="#FFFFFF" stroke-miterlimit="10" d="M41.016,37.095h-8.954c-0.675,0-1.223,0.548-1.223,1.222
				c0,0.675,0.547,1.223,1.223,1.223h8.954c0.674,0,1.221-0.547,1.221-1.223C42.236,37.643,41.689,37.095,41.016,37.095z"/>
		</g>
	</g>
</g>
<circle fill="#9DA1A6" cx="36.809" cy="-69.572" r="36.808"/>
<path id="XMLID_2_" fill="#FFFFFF" stroke="#9DA1A6" stroke-width="0.72" stroke-linejoin="round" stroke-miterlimit="10" d="
	M54.05-88.714H21.821c-2.216,0-4.029,1.812-4.029,4.029v32.348v3.91l8.058-8.058h28.2c2.216,0,4.028-1.813,4.028-4.028v-24.172
	C58.078-86.902,56.266-88.714,54.05-88.714z M54.05-60.514H24.177l-2.356,2.356v-26.528H54.05V-60.514z M42.971-76.628l-7.05,9.084
	l-5.037-6.062l-7.05,9.064h28.201L42.971-76.628z"/>
</svg>
