<?xml version="1.0" standalone="no"?>
<!DOCTYPE svg PUBLIC "-//W3C//DTD SVG 20010904//EN"
 "http://www.w3.org/TR/2001/REC-SVG-20010904/DTD/svg10.dtd">
<svg version="1.0" xmlns="http://www.w3.org/2000/svg"
 width="25.000000pt" height="25.000000pt" viewBox="0 0 600.000000 600.000000"
 preserveAspectRatio="xMidYMid meet">

<g transform="translate(0.000000,600.000000) scale(0.100000,-0.100000)"
fill="#000000" stroke="none">
<path d="M3340 5295 c-161 -27 -281 -68 -431 -147 -238 -124 -414 -299 -594
-592 -9 -15 -17 -15 -70 -5 -92 17 -341 6 -439 -20 -453 -120 -791 -512 -832
-965 -4 -45 -11 -76 -18 -76 -6 0 -57 -22 -113 -50 -211 -104 -365 -266 -453
-478 -89 -213 -92 -476 -8 -692 57 -149 192 -322 323 -415 81 -58 210 -119
310 -147 78 -22 95 -22 704 -26 464 -2 632 0 653 9 42 17 71 64 71 113 0 52
-16 82 -56 106 -31 19 -55 20 -615 20 -656 0 -676 2 -817 70 -147 71 -250 176
-322 325 -97 203 -78 457 47 649 92 141 246 251 407 290 51 13 79 26 99 47 27
28 28 35 35 162 15 256 93 433 265 598 111 106 194 155 344 205 78 26 97 28
240 28 128 1 168 -3 233 -21 124 -34 156 -17 218 112 161 339 457 569 829 645
89 19 128 21 260 17 188 -5 300 -31 455 -105 131 -63 208 -116 308 -211 250
-238 384 -571 364 -904 -9 -140 9 -175 108 -207 214 -69 425 -267 518 -485 57
-133 81 -327 58 -470 -51 -314 -259 -571 -555 -686 -139 -54 -201 -59 -728
-59 -529 0 -519 1 -558 -63 -11 -18 -20 -42 -20 -55 0 -40 28 -91 62 -112 32
-19 49 -20 528 -20 388 0 515 3 586 15 352 57 660 281 824 601 136 265 158
598 59 880 -61 172 -134 289 -264 420 -91 93 -239 199 -321 230 l-41 16 -6
126 c-11 214 -56 383 -154 575 -203 397 -582 676 -1022 751 -114 19 -362 20
-471 1z"/>
<path d="M2951 2903 c-19 -10 -43 -34 -53 -53 -17 -33 -18 -79 -18 -880 l0
-845 -168 168 c-156 156 -172 169 -212 174 -80 11 -140 -44 -140 -128 l0 -43
292 -293 c308 -309 324 -321 391 -302 42 11 602 570 612 612 24 94 -64 177
-161 153 -17 -5 -91 -70 -189 -167 -89 -87 -164 -159 -168 -159 -4 0 -7 383
-7 850 l0 850 -33 36 c-40 44 -95 54 -146 27z"/>
</g>
</svg>
