<?xml version="1.0" encoding="utf-8"?>
<!-- Generator: Adobe Illustrator 16.0.0, SVG Export Plug-In . SVG Version: 6.00 Build 0)  -->
<!DOCTYPE svg PUBLIC "-//W3C//DTD SVG 1.1//EN" "http://www.w3.org/Graphics/SVG/1.1/DTD/svg11.dtd">
<svg version="1.1" id="Layer_1" xmlns="http://www.w3.org/2000/svg" xmlns:xlink="http://www.w3.org/1999/xlink" x="0px" y="0px"
	 width="491.432px" height="412.707px" viewBox="-39.431 0.883 491.432 412.707"
	 enable-background="new -39.431 0.883 491.432 412.707" xml:space="preserve">
<path d="M451.902,10.943v-0.016c0.065-0.433,0.098-0.869,0.098-1.306c-0.008-0.269,0.016-0.534-0.016-0.803
	c-0.07-0.347-0.16-0.694-0.271-1.033c-0.004-0.023-0.012-0.043-0.016-0.066c-0.073-0.386-0.171-0.764-0.296-1.138
	c-0.103-0.261-0.223-0.499-0.348-0.752c-0.062-0.121-0.059-0.253-0.125-0.374c-0.141-0.25-0.369-0.405-0.529-0.635
	c-0.086-0.125-0.151-0.261-0.245-0.382c-0.125-0.164-0.168-0.362-0.306-0.519c-0.02-0.023-0.047-0.035-0.065-0.055
	c-0.175-0.198-0.413-0.339-0.607-0.522c-0.323-0.3-0.675-0.573-1.041-0.823c-0.237-0.21-0.486-0.409-0.748-0.592
	c-0.034-0.02-0.073-0.02-0.108-0.039c-0.234-0.125-0.487-0.16-0.727-0.261c-0.386-0.167-0.783-0.304-1.191-0.409
	c-0.353-0.117-0.706-0.211-1.068-0.281c-0.297-0.043-0.581-0.02-0.881-0.031c-1.092-0.086-2.191,0.07-3.217,0.46
	c-0.198,0.066-0.405,0.043-0.604,0.125L5.598,180.757c-3.208,1.337-5.376,4.381-5.583,7.851c-0.207,3.469,1.583,6.751,4.612,8.456
	l105.733,59.383l34.55,145.636c0.308,0.729,0.62,1.458,0.928,2.188c0.37,0.666,0.83,1.285,1.36,1.836
	c0.179,0.194,0.261,0.443,0.464,0.623c0.066,0.062,0.156,0.082,0.226,0.141c0.612,0.496,1.287,0.904,2.004,1.225
	c0.25,0.117,0.468,0.309,0.725,0.401c0.967,0.351,1.984,0.538,3.009,0.546c0.027,0,0.051,0.016,0.074,0.016v-0.004l0.004,0.004
	h0.016c1.146-0.02,2.272-0.258,3.325-0.701c0.292-0.141,0.577-0.297,0.85-0.473c0.752-0.394,1.446-0.896,2.059-1.492
	c0.144-0.141,0.339-0.19,0.476-0.344l72.333-80.71c0.03-0.039,0.038-0.09,0.073-0.129l115.37,64.755
	c1.345,0.76,2.865,1.158,4.412,1.158c4.18,0,7.809-2.865,8.787-6.928L451.82,12.026c0.012-0.035,0-0.074,0.012-0.109
	C451.871,11.594,451.895,11.271,451.902,10.943z M172.02,281.371l-18.392,79.066l-25.881-109.146l118.47-86.496L365.388,77.79
	L174.313,277.11C173.178,278.296,172.387,279.77,172.02,281.371z M376.704,47.088L206.321,171.486l-91.396,66.731l-85.154-47.825
	L376.704,47.088z M170.512,367.664l15.94-68.488l30.235,16.965L170.512,367.664z M346.652,368.3L194.08,282.666l60.712-63.332
	l171.521-178.92L346.652,368.3z"/>
<path d="M85.24,304.336c3.54-3.531,3.547-9.262,0.02-12.805c-3.532-3.54-9.263-3.553-12.806-0.023l-60.763,60.969
	c-3.532,3.549-3.532,9.282,0,12.83c1.692,1.703,3.992,2.658,6.389,2.658c2.401,0,4.702-0.955,6.394-2.658L85.24,304.336z"/>
<path d="M85.759,337.133l-60.771,60.975c-3.532,3.543-3.532,9.28,0,12.824c1.691,1.703,3.992,2.658,6.393,2.658
	c2.397,0,4.697-0.955,6.389-2.658l60.771-60.969c3.54-3.531,3.548-9.263,0.02-12.803C95.033,333.617,89.298,333.605,85.759,337.133z
	"/>
<path d="M23.987,280.799l-60.771,60.975c-3.532,3.543-3.532,9.28,0,12.824c1.691,1.703,3.992,2.658,6.393,2.658
	c2.397,0,4.697-0.955,6.389-2.658l60.771-60.969c3.54-3.531,3.548-9.263,0.02-12.803C33.262,277.283,27.526,277.271,23.987,280.799z
	"/>
</svg>
