<?xml version="1.0" encoding="utf-8"?>
<!-- Generator: Adobe Illustrator 16.0.0, SVG Export Plug-In . SVG Version: 6.00 Build 0)  -->
<!DOCTYPE svg PUBLIC "-//W3C//DTD SVG 1.1//EN" "http://www.w3.org/Graphics/SVG/1.1/DTD/svg11.dtd">
<svg version="1.1" id="Layer_1" xmlns="http://www.w3.org/2000/svg" xmlns:xlink="http://www.w3.org/1999/xlink" x="0px" y="0px"
	 width="512px" height="512px" viewBox="0 0 512 512" enable-background="new 0 0 512 512" xml:space="preserve">
<path stroke="#231F20" stroke-width="5.76" stroke-miterlimit="10" d="M358.855,443H306.4c-3.864,0.002-6.998-3.128-7-6.992
	c0-0.002,0-0.005,0-0.008v-94c-0.021-18.252-14.812-33.043-33.064-33.061h-20.68c-18.25,0.021-33.041,14.811-33.061,33.061v94
	c0,3.866-3.134,7-7,7h-52.688c-18.42-0.018-33.349-14.944-33.368-33.364V276.704H93.236c-14.114,0.008-25.562-11.427-25.57-25.542
	c-0.004-6.92,2.798-13.545,7.767-18.363L238.08,74.916c9.891-9.684,25.709-9.684,35.6,0L324.24,124
	c3.562-5.539,9.694-8.888,16.279-8.892h32.345c10.685,0.013,19.343,8.671,19.355,19.356V190l44.104,42.8
	c10.129,9.826,10.374,26.003,0.548,36.132c-4.813,4.962-11.432,7.762-18.344,7.76H392.22v132.933
	C392.207,428.047,377.279,442.98,358.855,443z M313.408,429h45.447c10.689-0.014,19.352-8.675,19.364-19.364V269.704
	c-0.002-3.864,3.128-6.998,6.992-7c0.003,0,0.005,0,0.008,0h33.309c6.38,0.003,11.554-5.167,11.557-11.547
	c0.001-3.126-1.265-6.12-3.509-8.297L380.344,198c-1.357-1.318-2.124-3.131-2.124-5.024v-58.508
	c-0.004-2.956-2.399-5.352-5.355-5.356H340.52c-2.956,0.004-5.352,2.4-5.355,5.356v3.1c-0.001,3.866-3.137,6.999-7.002,6.998
	c-1.82,0-3.568-0.71-4.874-1.978l-59.36-57.624c-4.471-4.38-11.625-4.38-16.096,0L85.2,242.86
	c-4.578,4.448-4.683,11.764-0.235,16.341c2.176,2.239,5.165,3.502,8.287,3.503h33.304c3.864-0.003,6.998,3.128,7,6.992
	c0,0.003,0,0.005,0,0.008v139.932c0.013,10.69,8.677,19.354,19.368,19.364h45.672v-87c0.038-25.973,21.087-47.018,47.06-47.048
	h20.688c25.975,0.028,47.027,21.073,47.064,47.048V429z"/>
</svg>
