<svg width="145" height="145" viewBox="0 0 145 145" fill="none" xmlns="http://www.w3.org/2000/svg">

<path opacity="0.15" fill-rule="evenodd" clip-rule="evenodd" d="M72.466 4.98018C109.741 4.98018 139.968 35.1972 139.968 72.4718C139.968 109.746 109.741 139.963 72.466 139.963C35.1949 139.963 4.98193 109.746 4.98193 72.4718C4.98193 35.1972 35.1949 4.98018 72.466 4.98018Z" stroke="black" strokeWidth="9"/>

<path d="M55.875 72.4773H53.875V74.4773H55.875V72.4773ZM57.5272 72.4773V74.4773H57.5277L57.5272 72.4773ZM55.8293 70.2227L53.8303 70.284L55.8293 70.2227ZM55.9183 65.6298L53.9335 65.3832L53.9333 65.3853L55.9183 65.6298ZM63.2975 58.2895L63.2288 56.2907L63.2221 56.2909L63.2975 58.2895ZM64.3348 56.99L66.3262 57.1757L66.3272 57.1645L64.3348 56.99ZM64.3942 53.7152L62.3945 53.7479V53.7479L64.3942 53.7152ZM64.0529 48.9224L62.682 50.3787L62.682 50.3787L64.0529 48.9224ZM60.4886 48.9038L60.6954 50.8931L60.696 50.893L60.4886 48.9038ZM44.1427 61.037L42.2551 60.3757L42.2536 60.3802L44.1427 61.037ZM42.9272 65.6054L44.9013 65.9264L44.9015 65.9252L42.9272 65.6054ZM42.0432 85.5704L44.043 85.5413L42.0432 85.5704ZM42.056 95.0501L40.0566 95L40.0565 95.0062L42.056 95.0501ZM43.4044 96.3465V98.3465H43.4055L43.4044 96.3465ZM67.6856 96.3434L67.6852 98.3434H67.6856V96.3434ZM69.0428 95.0908H71.0428L71.0428 95.0853L69.0428 95.0908ZM69.0381 73.8434L67.0381 73.8349L67.0381 73.8379L69.0381 73.8434ZM67.4631 72.4638L67.4478 70.4638L67.4478 70.4638L67.4631 72.4638ZM60.1368 72.4784L60.1352 74.4784H60.1352L60.1368 72.4784ZM89.5799 72.4773H87.5799V74.4773H89.5799V72.4773ZM92.9689 72.4765L92.9683 70.4765H92.9683L92.9689 72.4765ZM89.5424 70.403L87.5431 70.4581V70.4582L89.5424 70.403ZM89.619 66.2862L87.6324 66.0555L87.6322 66.0573L89.619 66.2862ZM97.082 58.346L96.9875 56.3483L96.9858 56.3483L97.082 58.346ZM98.257 56.8944L96.257 56.8872V56.8944H98.257ZM98.2604 56.0514L96.2604 56.0429V56.0429L98.2604 56.0514ZM98.2623 52.4573L96.2624 52.4693L96.2624 52.4709L98.2623 52.4573ZM97.9402 48.9577L99.3388 47.5281V47.5281L97.9402 48.9577ZM94.2339 48.911L94.0311 46.9213L94.0307 46.9213L94.2339 48.911ZM78.6648 59.293L80.4732 60.1472L80.474 60.1455L78.6648 59.293ZM76.1069 70.7153L78.1064 70.7621L78.1064 70.76L76.1069 70.7153ZM75.9568 85.915L73.9568 85.9088L75.9568 85.915ZM75.9093 94.7265L73.9094 94.7066L73.9094 94.7104L75.9093 94.7265ZM77.5675 96.3545L77.5602 94.3545L77.56 94.3545L77.5675 96.3545ZM101.071 96.3646L101.06 98.3645H101.06L101.071 96.3646ZM102.862 94.5636L104.862 94.5572L104.862 94.5472L102.862 94.5636ZM102.834 80.809L104.834 80.8111L102.834 80.809ZM102.837 74.5273L104.837 74.5255L104.837 74.5232L102.837 74.5273ZM100.707 72.4787L100.71 70.4787H100.71L100.707 72.4787ZM55.875 74.4773H57.5272V70.4773H55.875V74.4773ZM53.8303 70.284C53.8531 71.0265 53.875 71.7468 53.875 72.4773H57.875C57.875 71.6756 57.8509 70.8949 57.8284 70.1614L53.8303 70.284ZM53.9333 65.3853C53.7273 67.0574 53.7828 68.7344 53.8303 70.284L57.8284 70.1614C57.7791 68.5543 57.7413 67.1891 57.9033 65.8744L53.9333 65.3853ZM63.2221 56.2909C60.4141 56.3969 58.1641 57.3804 56.5594 59.1278C54.9956 60.8306 54.2215 63.0658 53.9335 65.3832L57.903 65.8764C58.1273 64.0717 58.6861 62.7257 59.5055 61.8334C60.2841 60.9856 61.4676 60.36 63.3729 60.2881L63.2221 56.2909ZM62.3435 56.8043C62.3545 56.6867 62.3774 56.6069 62.3881 56.5734C62.3944 56.554 62.3996 56.5403 62.4028 56.5325C62.406 56.5246 62.408 56.5205 62.4081 56.5202C62.4083 56.5198 62.4073 56.5219 62.405 56.5261C62.4026 56.5303 62.3994 56.5359 62.3952 56.5425C62.3865 56.5563 62.3766 56.5704 62.367 56.5827C62.3396 56.6178 62.3444 56.6018 62.4026 56.5574C62.4335 56.5339 62.5066 56.4816 62.6219 56.4291C62.7323 56.3788 62.9427 56.3005 63.2288 56.2907L63.3662 60.2883C64.0807 60.2638 64.5982 59.9134 64.8275 59.7386C65.1092 59.5238 65.3411 59.2732 65.5196 59.0447C65.82 58.66 66.2519 57.9724 66.3262 57.1757L62.3435 56.8043ZM62.3945 53.7479C62.4126 54.8607 62.427 55.8506 62.3425 56.8154L66.3272 57.1645C66.4329 55.9582 66.4115 54.7598 66.3939 53.6826L62.3945 53.7479ZM62.38 52.408C62.38 52.8626 62.3874 53.3148 62.3945 53.7479L66.3939 53.6826C66.3868 53.244 66.38 52.8245 66.38 52.408H62.38ZM62.682 50.3787C62.4495 50.1598 62.3759 49.936 62.3615 49.8845C62.3531 49.8544 62.3712 49.9081 62.3822 50.134C62.3927 50.3496 62.3936 50.6291 62.3902 51.0234C62.387 51.4006 62.38 51.8749 62.38 52.408H66.38C66.38 51.4795 66.4077 50.5591 66.3774 49.9389C66.3517 49.4107 66.2856 48.2774 65.4237 47.4661L62.682 50.3787ZM60.696 50.893C61.8549 50.7721 62.5095 50.6898 62.9814 50.6746C63.2029 50.6674 63.2513 50.6824 63.2112 50.6741C63.1471 50.6609 62.9156 50.5985 62.682 50.3787L65.4237 47.4661C64.5524 46.6459 63.4125 46.6586 62.8526 46.6766C62.1901 46.698 61.2794 46.8105 60.2811 46.9146L60.696 50.893ZM46.0302 61.6982C47.2329 58.2649 49.1055 55.7894 51.5058 54.0667C53.9228 52.3319 56.9914 51.2781 60.6954 50.8931L60.2818 46.9145C56.0659 47.3528 52.2867 48.5826 49.1734 50.817C46.0434 53.0635 43.7029 56.2429 42.2551 60.3757L46.0302 61.6982ZM44.9015 65.9252C45.1263 64.5372 45.535 63.1226 46.0318 61.6937L42.2536 60.3802C41.7165 61.925 41.229 63.5811 40.953 65.2857L44.9015 65.9252ZM44.043 85.5413C43.9455 78.8448 43.8561 72.3543 44.9013 65.9264L40.9532 65.2844C39.8421 72.1176 39.9468 78.9611 40.0434 85.5995L44.043 85.5413ZM44.0554 95.1003C44.1358 91.8966 44.0889 88.6957 44.043 85.5413L40.0434 85.5995C40.0895 88.7672 40.1347 91.8887 40.0566 95L44.0554 95.1003ZM43.4044 94.3465C43.2003 94.3465 43.455 94.2952 43.7536 94.5767C44.085 94.8891 44.053 95.209 44.0555 95.094L40.0565 95.0062C40.0395 95.7811 40.2268 96.7492 41.0098 97.4873C41.76 98.1945 42.6987 98.3465 43.4044 98.3465V94.3465ZM67.6859 94.3434C59.5926 94.3419 51.5001 94.3419 43.4032 94.3465L43.4055 98.3465C51.5009 98.3419 59.5923 98.3419 67.6852 98.3434L67.6859 94.3434ZM67.0428 95.0908C67.0428 95.168 67.0317 95.1193 67.0748 95.0016C67.1248 94.8647 67.2283 94.6909 67.4027 94.5442C67.5669 94.4059 67.7156 94.3577 67.7689 94.344C67.8141 94.3325 67.7985 94.3434 67.6856 94.3434V98.3434C68.272 98.3434 69.2012 98.2586 69.9783 97.6046C70.834 96.8844 71.0428 95.8848 71.0428 95.0908H67.0428ZM67.0381 73.8379C67.0185 80.9248 67.0233 88.0113 67.0428 95.0964L71.0428 95.0853C71.0233 88.0057 71.0185 80.9268 71.0381 73.8489L67.0381 73.8379ZM67.4783 74.4637C67.6509 74.4624 67.7158 74.4751 67.7145 74.4748C67.707 74.4732 67.5734 74.4437 67.4094 74.3172C67.2279 74.1772 67.1167 74.0016 67.0643 73.8624C67.0216 73.7489 67.0386 73.716 67.0381 73.8349L71.0381 73.8519C71.0418 72.9806 70.815 71.8925 69.8524 71.15C69.0203 70.5081 68.0315 70.4594 67.4478 70.4638L67.4783 74.4637ZM60.1352 74.4784C62.5776 74.4804 65.0318 74.4824 67.4784 74.4637L67.4478 70.4638C65.0209 70.4824 62.5837 70.4804 60.1385 70.4784L60.1352 74.4784ZM57.5277 74.4773C58.3958 74.477 59.2647 74.4777 60.1352 74.4784L60.1385 70.4784C59.2683 70.4777 58.3972 70.477 57.5266 70.4773L57.5277 74.4773ZM89.5799 74.4773C90.72 74.4773 91.8489 74.4769 92.9696 74.4765L92.9683 70.4765C91.8475 70.4769 90.7192 70.4773 89.5799 70.4773V74.4773ZM87.5431 70.4582C87.5618 71.1338 87.5799 71.7962 87.5799 72.4773H91.5799C91.5799 71.7325 91.56 71.0161 91.5416 70.3478L87.5431 70.4582ZM87.6322 66.0573C87.4595 67.5558 87.5044 69.0534 87.5431 70.4581L91.5416 70.3478C91.5014 68.889 91.4715 67.6812 91.6059 66.5151L87.6322 66.0573ZM96.9858 56.3483C93.8357 56.5 91.5165 57.6727 89.9662 59.6284C88.4878 61.4936 87.8885 63.8492 87.6324 66.0555L91.6057 66.5168C91.8267 64.6128 92.2978 63.1264 93.1009 62.1132C93.8323 61.1905 95.006 60.4483 97.1781 60.3437L96.9858 56.3483ZM96.257 56.8944C96.257 56.9588 96.2553 57.0058 96.2529 57.0399C96.2505 57.0741 96.248 57.0866 96.2487 57.0828C96.2491 57.0805 96.2695 56.9647 96.3685 56.8113C96.4807 56.6373 96.6413 56.497 96.8124 56.4131C96.9624 56.3396 97.0466 56.3455 96.9875 56.3483L97.1764 60.3438C98.1149 60.2994 99.1109 59.939 99.7298 58.9796C100.235 58.1965 100.257 57.3277 100.257 56.8944H96.257ZM96.2604 56.0429C96.2592 56.3238 96.258 56.6054 96.257 56.8872L100.257 56.9017C100.258 56.6213 100.259 56.3409 100.26 56.0598L96.2604 56.0429ZM96.2624 52.4709C96.2705 53.6573 96.2655 54.8434 96.2604 56.0429L100.26 56.0598C100.265 54.864 100.271 53.6558 100.262 52.4437L96.2624 52.4709ZM96.5416 50.3874C96.3186 50.1693 96.2518 49.9516 96.2403 49.9087C96.2343 49.8862 96.252 49.9466 96.2621 50.1779C96.2717 50.3997 96.2715 50.6821 96.2682 51.0802C96.265 51.4634 96.2592 51.9333 96.2624 52.4693L100.262 52.4453C100.257 51.5517 100.284 50.602 100.258 50.0043C100.236 49.4803 100.18 48.3506 99.3388 47.5281L96.5416 50.3874ZM94.4367 50.9007C95.6418 50.7778 96.334 50.6975 96.8176 50.687C97.047 50.682 97.0994 50.6984 97.061 50.6898C96.9976 50.6757 96.7689 50.6098 96.5416 50.3874L99.3388 47.5281C98.4729 46.681 97.3193 46.6751 96.7305 46.6879C96.0373 46.703 95.0948 46.8129 94.0311 46.9213L94.4367 50.9007ZM80.474 60.1455C83.1617 54.4416 87.9276 51.5654 94.4371 50.9006L94.0307 46.9213C86.3929 47.7013 80.2474 51.2424 76.8556 58.4405L80.474 60.1455ZM78.1064 70.76C78.1892 67.0634 78.9063 63.4647 80.4732 60.1472L76.8564 58.4388C75.0096 62.3489 74.2004 66.5166 74.1074 70.6705L78.1064 70.76ZM77.9567 85.9212C77.9725 80.851 77.9882 75.8045 78.1064 70.7621L74.1075 70.6684C73.9882 75.7582 73.9725 80.8454 73.9568 85.9088L77.9567 85.9212ZM77.9092 94.7464C77.9385 91.8013 77.9476 88.8573 77.9567 85.9212L73.9568 85.9088C73.9476 88.8472 73.9385 91.7775 73.9094 94.7066L77.9092 94.7464ZM77.56 94.3545C77.3622 94.3553 77.3048 94.3356 77.3311 94.343C77.3741 94.3551 77.5259 94.4092 77.683 94.5652C77.8412 94.7224 77.9002 94.8788 77.9159 94.9343C77.9263 94.9713 77.9078 94.9266 77.9093 94.7427L73.9094 94.7104C73.9033 95.4624 74.0176 96.5625 74.8644 97.4035C75.7042 98.2375 76.804 98.3574 77.575 98.3545L77.56 94.3545ZM101.083 94.3646C93.2386 94.3192 85.4004 94.3261 77.5602 94.3545L77.5747 98.3545C85.4081 98.3261 93.2327 98.3192 101.06 98.3645L101.083 94.3646ZM100.862 94.5699C100.863 94.6859 100.858 94.7707 100.853 94.8309C100.847 94.8915 100.841 94.9148 100.842 94.9109C100.843 94.9061 100.854 94.8648 100.886 94.8021C100.92 94.7367 100.971 94.658 101.046 94.58C101.12 94.5018 101.2 94.4436 101.271 94.4035C101.339 94.3649 101.388 94.3498 101.401 94.3461C101.413 94.3428 101.396 94.3486 101.34 94.3545C101.284 94.3605 101.2 94.3653 101.083 94.3646L101.06 98.3645C101.883 98.3693 103.068 98.255 103.939 97.3419C104.787 96.4535 104.865 95.2935 104.862 94.5572L100.862 94.5699ZM100.834 80.8069C100.83 85.3902 100.825 89.9841 100.862 94.5799L104.862 94.5472C104.825 89.9729 104.83 85.3974 104.834 80.8111L100.834 80.8069ZM100.837 74.5291C100.839 76.6208 100.837 78.7128 100.834 80.8069L104.834 80.8111C104.837 78.7175 104.839 76.6217 104.837 74.5255L100.837 74.5291ZM100.704 74.4787C100.969 74.4791 101.175 74.4799 101.349 74.4843C101.434 74.4864 101.504 74.4892 101.562 74.4927C101.621 74.4961 101.662 74.4999 101.69 74.5031C101.718 74.5063 101.724 74.5082 101.715 74.5063C101.706 74.5044 101.674 74.4971 101.625 74.4796C101.575 74.4617 101.504 74.4319 101.423 74.384C101.341 74.3352 101.254 74.2716 101.169 74.1908C101.085 74.11 101.016 74.0233 100.96 73.9372C100.906 73.8524 100.871 73.7765 100.849 73.7191C100.827 73.6627 100.816 73.6222 100.813 73.6056C100.809 73.5892 100.81 73.5887 100.812 73.61C100.815 73.6311 100.819 73.666 100.822 73.7191C100.825 73.772 100.828 73.8366 100.831 73.9165C100.833 73.9963 100.834 74.0864 100.835 74.1899C100.836 74.2936 100.837 74.406 100.837 74.5314L104.837 74.5232C104.836 74.0615 104.836 73.5412 104.78 73.1039C104.724 72.6671 104.572 71.9127 103.939 71.3052C103.321 70.712 102.575 70.5792 102.153 70.53C101.717 70.4791 101.193 70.4794 100.71 70.4787L100.704 74.4787ZM92.9696 74.4765C95.5788 74.4757 98.1431 74.4749 100.704 74.4787L100.71 70.4787C98.1448 70.4749 95.5769 70.4757 92.9683 70.4765L92.9696 74.4765Z" fill="#C4C4C4"/>
</svg>
