<?xml version="1.0" encoding="utf-8"?>
<!-- Generator: Adobe Illustrator 16.0.0, SVG Export Plug-In . SVG Version: 6.00 Build 0)  -->
<!DOCTYPE svg PUBLIC "-//W3C//DTD SVG 1.1//EN" "http://www.w3.org/Graphics/SVG/1.1/DTD/svg11.dtd">
<svg version="1.1" id="Capa_1" xmlns="http://www.w3.org/2000/svg" xmlns:xlink="http://www.w3.org/1999/xlink" x="0px" y="0px"
	 width="2500px" height="2347.852px" viewBox="0 0 2500 2347.852" enable-background="new 0 0 2500 2347.852" xml:space="preserve">
<g>
	<g>
		<path d="M2198.501,743.198c0.897-14.302,1.499-28.701,1.499-43.198c0-386.001-314.102-700-700-700
			c-278.398,0-529.398,166.201-640.298,418.599C823.804,406.299,787.104,400,750,400c-178.701,0-326.602,134.6-347.1,311.699
			C170.498,757.402,0,960.298,0,1200c0,275.698,224.302,500,500,500h450c27.598,0,50-22.402,50-50s-22.402-50-50-50H500
			c-220.601,0-400-179.399-400-400c0-202.9,152.998-372.9,356.001-395.298C481.299,801.904,500,775.503,500,750
			c0-137.798,112.202-250,250-250c38.501,0,77.002,9.8,114.302,29.102c12.798,6.803,27.9,7.402,41.499,2.101
			c13.398-5.298,23.901-16.299,28.701-29.897C1018.799,261.299,1246.1,100,1500,100c330.898,0,600,269.102,600,600
			c0,23.799-1.802,47.202-4.502,70.298c-2.7,23.398,11.201,45.498,33.501,53.102C2291.1,878.999,2400,1030.298,2400,1200
			c0,220.601-179.398,400-400,400h-450c-27.598,0-50,22.402-50,50s22.402,50,50,50h450c275.698,0,500-224.302,500-500
			C2500,1000.801,2380.4,821.899,2198.501,743.198z"/>
	</g>
</g>
<g>
	<g>
		<path d="M1250,900c-27.598,0-50,22.402-50,50v1347.852c0,27.598,22.402,50,50,50s50-22.402,50-50V950
			C1300,922.402,1277.598,900,1250,900z"/>
	</g>
</g>
<g>
	<g>
		<path d="M1685.4,1314.6l-400-400c-19.502-19.502-51.201-19.502-70.698,0l-400,400c-19.502,19.502-19.502,51.201,0,70.698
			s51.201,19.502,70.698,0l364.6-364.6l364.6,364.702c9.801,9.701,22.599,14.6,35.4,14.6s25.602-4.896,35.4-14.702
			C1704.902,1365.801,1704.902,1334.102,1685.4,1314.6z"/>
	</g>
</g>
</svg>
