<?xml version="1.0" encoding="utf-8"?>
<!-- Generator: Adobe Illustrator 16.0.0, SVG Export Plug-In . SVG Version: 6.00 Build 0)  -->
<!DOCTYPE svg PUBLIC "-//W3C//DTD SVG 1.1//EN" "http://www.w3.org/Graphics/SVG/1.1/DTD/svg11.dtd">
<svg version="1.1" id="Layer_1" xmlns="http://www.w3.org/2000/svg" xmlns:xlink="http://www.w3.org/1999/xlink" x="0px" y="0px"
	 width="411px" height="411px" viewBox="0 0 411 411" enable-background="new 0 0 411 411" xml:space="preserve">
<path d="M109.484,160.289c0-16.927-13.77-30.693-30.696-30.693h-3.411c-3.767,0-6.818,3.052-6.818,6.823
	c0,3.766,3.052,6.818,6.818,6.818h3.411c9.402,0,17.052,7.649,17.052,17.052c0,9.402-7.65,17.052-17.052,17.052
	c-3.767,0-6.818,3.056-6.818,6.822c0,3.766,3.052,6.822,6.818,6.822C95.715,190.985,109.484,177.216,109.484,160.289z"/>
<path d="M116.303,223.371c-22.566,0-40.926,18.359-40.926,40.927v1.714c0,3.77,3.056,6.822,6.822,6.822
	c3.766,0,6.822-3.053,6.822-6.822v-1.714c0-15.042,12.239-27.285,27.281-27.285c3.767,0,6.822-3.052,6.822-6.819
	C123.125,226.428,120.069,223.371,116.303,223.371z"/>
<path d="M136.766,136.419c15.042,0,27.285-12.244,27.285-27.286c0-3.766-3.056-6.822-6.822-6.822c-3.766,0-6.822,3.056-6.822,6.822
	c0,7.525-6.116,13.641-13.641,13.641c-3.766,0-6.822,3.056-6.822,6.822C129.943,133.363,133,136.419,136.766,136.419z"/>
<path d="M167.458,293.297c-13.16,0-23.87-10.71-23.87-23.875c0-3.766-3.056-6.818-6.822-6.818c-3.766,0-6.822,3.053-6.822,6.818
	c0,20.686,16.83,37.516,37.515,37.516c3.767,0,6.823-3.053,6.823-6.818C174.281,296.349,171.225,293.297,167.458,293.297z"/>
<path d="M389.136,236.981c-12.247,0-22.207,9.964-22.207,22.211c0,1.726,0.242,3.388,0.616,5.004l-14.401,8.638H232.258v-34.104
	h33.538c2.9,8.899,11.179,15.39,21.029,15.39c12.247,0,22.212-9.965,22.212-22.212c0-12.243-9.969-22.208-22.212-22.208
	c-9.854,0-18.129,6.491-21.029,15.39h-33.538v-34.104h88.105c2.899,8.895,11.178,15.39,21.028,15.39
	c12.247,0,22.212-9.969,22.212-22.212c0-12.248-9.969-22.211-22.212-22.211c-9.854,0-18.129,6.494-21.028,15.389h-88.105v-34.104
	h120.886l14.401,8.641c-0.374,1.612-0.616,3.274-0.616,5c0,12.247,9.964,22.211,22.207,22.211c12.248,0,22.212-9.964,22.212-22.211
	c0-12.244-9.964-22.208-22.212-22.208c-5.573,0-10.615,2.135-14.519,5.542l-16.072-9.644c-1.065-0.636-2.275-0.972-3.513-0.972
	H232.258v-27.285h102.312c2.072,0,4.032-0.94,5.327-2.56l24.218-30.275c1.476,0.309,2.998,0.48,4.559,0.48
	c12.248,0,22.212-9.964,22.212-22.212c0-12.243-9.964-22.208-22.212-22.208c-12.243,0-22.207,9.964-22.207,22.208
	c0,5.694,2.213,10.839,5.749,14.777l-20.92,26.149h-99.037V68.208h47.749c2.583,0,4.944-1.456,6.101-3.771l7.992-15.986
	c2.03,0.617,4.142,1.042,6.37,1.042c12.243,0,22.208-9.964,22.208-22.208c0-12.247-9.965-22.211-22.208-22.211
	c-12.247,0-22.212,9.964-22.212,22.211c0,5,1.726,9.574,4.527,13.29l-6.998,13.992h-43.529v-6.822
	C232.258,21.419,210.84,0,184.514,0c-18.753,0-35.466,10.838-43.237,27.508c-0.3-0.031-0.589-0.016-0.89-0.039
	c-1.198-0.09-2.396-0.184-3.622-0.184c-0.027,0-0.055,0.016-0.086,0.016c-26.263-0.094-47.654,21.435-47.658,47.729
	c0,0.664,0.016,1.327,0.043,1.994c-4.402-1.315-9.004-1.994-13.684-1.994c-26.329,0-47.749,21.419-47.749,47.748
	c0,6.639,1.397,13.176,4.071,19.222c-19.491,13.266-31.352,35.392-31.352,59.215c0,23.827,11.861,45.953,31.352,59.219
	c-2.673,6.05-4.071,12.587-4.071,19.223c0,26.328,21.419,47.748,47.749,47.748c4.68,0,9.281-0.676,13.684-1.994
	c-0.031,0.667-0.043,1.33-0.043,1.994c0.004,26.297,21.419,47.83,47.662,47.729c0.031,0,0.055,0.016,0.082,0.016
	c1.21,0,2.393-0.094,3.579-0.18c0.312-0.027,0.617-0.012,0.933-0.043c7.771,16.666,24.479,27.504,43.233,27.504
	c24.007,0,43.876-17.824,47.202-40.922h44.075l6.998,13.988c-2.802,3.719-4.527,8.289-4.527,13.293
	c0,12.247,9.965,22.211,22.212,22.211c12.243,0,22.208-9.964,22.208-22.211c0-12.244-9.965-22.211-22.208-22.211
	c-2.232,0-4.34,0.433-6.37,1.041l-7.992-15.986c-1.156-2.311-3.518-3.77-6.101-3.77h-47.749v-20.459h99.037l20.92,26.149
	c-3.532,3.934-5.749,9.078-5.749,14.772c0,12.247,9.964,22.211,22.207,22.211c12.248,0,22.212-9.964,22.212-22.211
	c0-12.244-9.964-22.208-22.212-22.208c-1.561,0-3.083,0.168-4.559,0.477l-24.218-30.274c-1.295-1.616-3.255-2.561-5.327-2.561
	H232.258v-27.281h122.774c1.237,0,2.447-0.336,3.513-0.973l16.072-9.644c3.903,3.407,8.945,5.542,14.519,5.542
	c12.248,0,22.212-9.965,22.212-22.212C411.348,246.949,401.384,236.981,389.136,236.981z M286.825,223.34
	c4.723,0,8.567,3.845,8.567,8.567c0,4.727-3.845,8.571-8.567,8.571c-4.727,0-8.571-3.845-8.571-8.571
	C278.254,227.185,282.099,223.34,286.825,223.34z M341.392,175.592c4.723,0,8.567,3.844,8.567,8.571s-3.845,8.567-8.567,8.567
	c-4.727,0-8.57-3.84-8.57-8.567S336.665,175.592,341.392,175.592z M389.136,148.311c4.727,0,8.571,3.845,8.571,8.567
	c0,4.726-3.845,8.57-8.571,8.57c-4.722,0-8.566-3.844-8.566-8.57C380.569,152.155,384.414,148.311,389.136,148.311z M368.673,39.178
	c4.727,0,8.571,3.844,8.571,8.566c0,4.727-3.845,8.571-8.571,8.571c-4.722,0-8.566-3.845-8.566-8.571
	C360.106,43.022,363.951,39.178,368.673,39.178z M300.466,18.714c4.727,0,8.571,3.844,8.571,8.571c0,4.723-3.845,8.567-8.571,8.567
	s-8.567-3.844-8.567-8.567C291.898,22.559,295.739,18.714,300.466,18.714z M309.037,388.789c0,4.723-3.845,8.566-8.567,8.566
	c-4.727,0-8.571-3.844-8.571-8.566c0-4.727,3.845-8.57,8.571-8.57C305.192,380.219,309.037,384.062,309.037,388.789z
	 M377.244,368.326c0,4.727-3.845,8.566-8.567,8.566c-4.726,0-8.57-3.84-8.57-8.566c0-3.528,2.15-6.561,5.202-7.872
	c0.016-0.012,0.031-0.016,0.051-0.027c1.019-0.43,2.143-0.671,3.317-0.671C373.399,359.756,377.244,363.6,377.244,368.326z
	 M184.51,388.789c-12.455,0-23.582-6.748-29.553-17.263c17.325-7.17,29.553-24.241,29.553-44.126c0-3.767-3.052-6.822-6.818-6.822
	c-3.767,0-6.822,3.056-6.822,6.822c0,16.342-11.564,30.006-26.93,33.314c-0.367,0.078-0.726,0.109-1.089,0.176
	c-1.838,0.336-3.712,0.543-5.64,0.57c-18.972,0.344-34.549-15.12-34.549-34.061c0-3.872,0.691-7.748,2.045-11.525
	c1-2.775,0.098-5.882-2.236-7.693c-2.33-1.818-5.565-1.916-8.005-0.261c-5.644,3.821-12.243,5.839-19.085,5.839
	c-18.804,0-34.104-15.304-34.104-34.104c0-6.37,1.803-12.615,5.218-18.063c0.995-1.589,1.296-3.517,0.828-5.331
	c-0.472-1.818-1.67-3.356-3.31-4.262c-18.515-10.219-30.017-29.678-30.017-50.785c0-21.107,11.502-40.567,30.017-50.785
	c1.64-0.906,2.838-2.447,3.31-4.262c0.468-1.814,0.167-3.743-0.828-5.331c-3.415-5.449-5.218-11.693-5.218-18.063
	c0-18.8,15.3-34.104,34.104-34.104c6.846,0,13.445,2.018,19.085,5.839c2.439,1.647,5.675,1.557,8.005-0.262
	c2.334-1.811,3.236-4.917,2.236-7.693c-1.354-3.778-2.045-7.653-2.045-11.525c0-18.96,15.604-34.42,34.607-34.053
	c1.9,0.027,3.754,0.234,5.569,0.562c0.371,0.066,0.729,0.098,1.101,0.176c15.366,3.31,26.934,16.974,26.934,33.315
	c0,3.766,3.052,6.822,6.818,6.822c3.766,0,6.822-3.056,6.822-6.822c0-19.885-12.232-36.957-29.557-44.126
	c5.972-10.515,17.103-17.263,29.557-17.263c18.804,0,34.103,15.303,34.103,34.104v85.599c-0.479,0.933-0.819,1.951-0.819,3.076
	c0,1.12,0.34,2.139,0.819,3.071v37.851h-13.64c-11.283,0-20.463-9.18-20.463-20.463c0-3.767-3.056-6.818-6.822-6.818
	c-3.767,0-6.818,3.052-6.818,6.818c0,18.804,15.299,34.107,34.104,34.107h13.64v61.385h-15.412c-6.545,0-11.873-5.323-11.873-11.868
	c0-23.543-19.152-42.698-42.694-42.698h-5.051c-3.766,0-6.822,3.056-6.822,6.822s3.056,6.818,6.822,6.818h5.051
	c16.021,0,29.053,13.04,29.053,29.058c0,14.066,11.443,25.51,25.513,25.51h15.412v88.674
	C218.617,373.49,203.318,388.789,184.51,388.789z M389.136,267.764c-4.722,0-8.566-3.845-8.566-8.571
	c0-4.722,3.845-8.566,8.566-8.566c4.727,0,8.571,3.845,8.571,8.566C397.707,263.919,393.862,267.764,389.136,267.764z"/>
</svg>
