<?xml version="1.0" encoding="utf-8"?>
<!-- Generator: Adobe Illustrator 16.0.0, SVG Export Plug-In . SVG Version: 6.00 Build 0)  -->
<!DOCTYPE svg PUBLIC "-//W3C//DTD SVG 1.1//EN" "http://www.w3.org/Graphics/SVG/1.1/DTD/svg11.dtd">
<svg version="1.1" id="Layer_1" xmlns="http://www.w3.org/2000/svg" xmlns:xlink="http://www.w3.org/1999/xlink" x="0px" y="0px"
	 width="512px" height="512px" viewBox="0 0 512 512" enable-background="new 0 0 512 512" xml:space="preserve">
<g id="Artboard_06">
	<path d="M224,88c-70.692,0-128,57.308-128,128s57.308,128,128,128s128-57.308,128-128C351.916,145.342,294.658,88.084,224,88z
		 M224,328c-61.856,0-112-50.145-112-112c0-61.856,50.144-112,112-112c61.855,0,112,50.144,112,112
		C335.934,277.828,285.828,327.934,224,328z"/>
	<path d="M490.056,422.744l-84.399-84.4c-3.124-3.123-8.188-3.123-11.312,0L384,348.688L350.496,315.2
		C372.31,286.739,384.09,251.859,384,216c0-88.366-71.635-160-160-160c-88.366,0-160,71.634-160,160c0,88.365,71.634,160,160,160
		c32.004-0.068,63.339-9.17,90.4-26.256L348.688,384l-10.344,10.344c-3.123,3.124-3.123,8.188,0,11.312l84.4,84.399
		c18.371,18.805,48.508,19.156,67.312,0.786c18.805-18.371,19.156-48.508,0.786-67.312
		C490.582,423.265,490.32,423.003,490.056,422.744L490.056,422.744z M321.072,333.76c-2.762-2.763-7.113-3.128-10.296-0.863
		C285.277,350.539,255.008,359.994,224,360c-79.529,0-144-64.471-144-144S144.471,72,224,72s144,64.471,144,144
		c0.107,34.598-12.065,68.111-34.352,94.576c-2.693,3.177-2.498,7.889,0.447,10.832L372.688,360L360,372.688L321.072,333.76z
		 M456.4,488c-8.386,0.022-16.432-3.311-22.345-9.256L355.312,400L400,355.312l78.744,78.743c12.34,12.341,12.34,32.35-0.001,44.689
		C472.817,484.671,464.78,488,456.4,488z"/>
	<path d="M316.24,209.272l-43.656-27.32c-29.816-18.257-67.352-18.257-97.168,0l-43.656,27.32
		c-3.755,2.328-4.913,7.259-2.585,11.014c0.651,1.05,1.536,1.935,2.585,2.586l43.68,27.264c29.717,18.528,67.387,18.528,97.104,0
		l43.68-27.264c3.756-2.328,4.913-7.259,2.586-11.014c-0.65-1.05-1.536-1.935-2.586-2.586H316.24z M224,232c-8.836,0-16-7.164-16-16
		s7.164-16,16-16s16,7.164,16,16S232.836,232,224,232z M151.096,216.048l32.8-20.536c10.234-6.277,21.826-10.006,33.8-10.872
		c-17.322,3.506-28.522,20.39-25.016,37.712c2.552,12.609,12.407,22.464,25.016,25.016c-11.971-0.855-23.562-4.57-33.8-10.832
		L151.096,216.048z M264.088,236.536c-10.207,6.238-21.757,9.947-33.688,10.816c17.312-3.552,28.467-20.466,24.916-37.779
		c-2.58-12.573-12.423-22.389-25.003-24.933c11.975,0.865,23.566,4.594,33.8,10.872l32.8,20.536L264.088,236.536z"/>
</g>
</svg>
