<?xml version="1.0" encoding="utf-8"?>
<!-- Generator: Adobe Illustrator 16.0.0, SVG Export Plug-In . SVG Version: 6.00 Build 0)  -->
<!DOCTYPE svg PUBLIC "-//W3C//DTD SVG 1.1//EN" "http://www.w3.org/Graphics/SVG/1.1/DTD/svg11.dtd">
<svg version="1.1" id="Layer_1" xmlns="http://www.w3.org/2000/svg" xmlns:xlink="http://www.w3.org/1999/xlink" x="0px" y="0px"
	 width="512px" height="512px" viewBox="0 0 512 512" enable-background="new 0 0 512 512" xml:space="preserve">
<g id="Page-1">
	<g id="_x30_73---mobile-voicemail">
		<path id="Shape" d="M354.133,34.133c-11.345,0.042-22.64,1.507-33.621,4.361v-4.361C320.512,15.282,305.23,0,286.379,0H47.445
			C28.594,0,13.312,15.282,13.312,34.133v400.921v0.146v0.29v42.377c0,18.851,15.282,34.133,34.133,34.133h238.934
			c18.852,0,34.133-15.282,34.133-34.133V302.934c51.254,13.123,105.476-4.547,139.157-45.348
			c33.681-40.801,40.759-97.388,18.165-145.228C455.239,64.519,407.04,34.039,354.133,34.133z M232.516,17.066L221.568,28.74
			c-3.224,3.439-7.728,5.391-12.441,5.393h-84.48c-4.717,0-9.224-1.952-12.45-5.393l-10.948-11.674H232.516z M47.445,17.066h30.413
			l21.879,23.339c6.458,6.876,15.468,10.781,24.9,10.795h84.48c9.433-0.011,18.443-3.917,24.9-10.795l21.888-23.339h30.473
			c9.426,0,17.066,7.641,17.066,17.067v9.865c-51.784,20.747-85.762,70.883-85.845,126.668
			c-0.093,27.666,8.307,54.692,24.064,77.432l-17.477,48.103c-1.92,5.225-1.172,11.059,2.006,15.629
			c3.178,4.571,8.385,7.305,13.952,7.325c1.837,0.005,3.664-0.282,5.41-0.854l57.89-19.319v136.072v0.146
			c0,9.426-7.641,17.066-17.066,17.066H47.445c-9.313,0.001-16.908-7.464-17.066-16.776V34.133c0-4.526,1.798-8.867,4.999-12.068
			S42.919,17.066,47.445,17.066z M286.379,494.934H47.445c-9.426,0-17.066-7.642-17.066-17.066v-13.262
			c5.167,3.066,11.058,4.699,17.066,4.728h238.934c6.012-0.036,11.904-1.68,17.066-4.761v13.295
			C303.445,487.292,295.805,494.934,286.379,494.934z M354.133,290.133c-15.478,0.045-30.812-2.956-45.133-8.832
			c-1.902-0.775-4.021-0.849-5.973-0.204l-62.814,20.983l19.029-52.386c0.983-2.698,0.544-5.708-1.168-8.013
			c-15.284-20.514-23.498-45.434-23.408-71.014c0-65.98,53.488-119.467,119.466-119.467c65.98,0,119.467,53.487,119.467,119.467
			C473.6,236.646,420.113,290.133,354.133,290.133L354.133,290.133z"/>
	</g>
</g>
<path d="M346.151,208.782c0,3.816,3.098,6.913,6.913,6.913s6.913-3.097,6.913-6.913v-82.956c0-3.816-3.098-6.913-6.913-6.913
	s-6.913,3.097-6.913,6.913V208.782z"/>
<path d="M277.021,125.826c-3.816,0-6.913,3.097-6.913,6.913v69.13c0,3.816,3.097,6.913,6.913,6.913s6.913-3.097,6.913-6.913v-69.13
	C283.935,128.923,280.838,125.826,277.021,125.826z"/>
<path d="M335.781,194.957v-55.304c0-3.816-3.097-6.913-6.912-6.913c-3.816,0-6.913,3.097-6.913,6.913v55.304
	c0,3.816,3.097,6.913,6.913,6.913C332.685,201.869,335.781,198.772,335.781,194.957z"/>
<path d="M304.673,188.043c3.816,0,6.914-3.097,6.914-6.913v-27.651c0-3.816-3.098-6.913-6.914-6.913
	c-3.815,0-6.912,3.097-6.912,6.913v27.651C297.761,184.946,300.857,188.043,304.673,188.043z"/>
<path d="M384.173,194.957v-55.304c0-3.816-3.097-6.913-6.913-6.913c-3.815,0-6.912,3.097-6.912,6.913v55.304
	c0,3.816,3.097,6.913,6.912,6.913C381.076,201.869,384.173,198.772,384.173,194.957z"/>
<path d="M429.106,125.826c-3.814,0-6.911,3.097-6.911,6.913v69.13c0,3.816,3.097,6.913,6.911,6.913c3.817,0,6.914-3.097,6.914-6.913
	v-69.13C436.021,128.923,432.924,125.826,429.106,125.826z"/>
<path d="M401.456,146.565c-3.816,0-6.914,3.097-6.914,6.913v27.651c0,3.816,3.098,6.913,6.914,6.913
	c3.815,0,6.912-3.097,6.912-6.913v-27.651C408.368,149.662,405.271,146.565,401.456,146.565z"/>
</svg>
